  0
SECTION
  2
HEADER
  9
$ACADVER
  1
AC1018
  9
$ACADMAINTVER
 70
     0
  9
$DWGCODEPAGE
  3
ANSI_1252
  9
$INSBASE
 10
0.0
 20
0.0
 30
0.0
  9
$EXTMIN
 10
1.000000000000000E+20
 20
1.000000000000000E+20
 30
1.000000000000000E+20
  9
$EXTMAX
 10
-1.000000000000000E+20
 20
-1.000000000000000E+20
 30
-1.000000000000000E+20
  9
$LIMMIN
 10
0.0
 20
0.0
  9
$LIMMAX
 10
12.0
 20
9.0
  9
$ORTHOMODE
 70
     0
  9
$REGENMODE
 70
     1
  9
$FILLMODE
 70
     1
  9
$QTEXTMODE
 70
     0
  9
$MIRRTEXT
 70
     1
  9
$LTSCALE
 40
1.0
  9
$ATTMODE
 70
     1
  9
$TEXTSIZE
 40
0.2
  9
$TRACEWID
 40
0.05
  9
$TEXTSTYLE
  7
Standard
  9
$CLAYER
  8
0
  9
$CELTYPE
  6
ByLayer
  9
$CECOLOR
 62
   256
  9
$CELTSCALE
 40
1.0
  9
$DISPSILH
 70
     0
  9
$DIMSCALE
 40
1.0
  9
$DIMASZ
 40
0.18
  9
$DIMEXO
 40
0.0625
  9
$DIMDLI
 40
0.38
  9
$DIMRND
 40
0.0
  9
$DIMDLE
 40
0.0
  9
$DIMEXE
 40
0.18
  9
$DIMTP
 40
0.0
  9
$DIMTM
 40
0.0
  9
$DIMTXT
 40
0.18
  9
$DIMCEN
 40
0.09
  9
$DIMTSZ
 40
0.0
  9
$DIMTOL
 70
     0
  9
$DIMLIM
 70
     0
  9
$DIMTIH
 70
     1
  9
$DIMTOH
 70
     1
  9
$DIMSE1
 70
     0
  9
$DIMSE2
 70
     0
  9
$DIMTAD
 70
     0
  9
$DIMZIN
 70
     0
  9
$DIMBLK
  1

  9
$DIMASO
 70
     1
  9
$DIMSHO
 70
     1
  9
$DIMPOST
  1

  9
$DIMAPOST
  1

  9
$DIMALT
 70
     0
  9
$DIMALTD
 70
     2
  9
$DIMALTF
 40
25.4
  9
$DIMLFAC
 40
1.0
  9
$DIMTOFL
 70
     0
  9
$DIMTVP
 40
0.0
  9
$DIMTIX
 70
     0
  9
$DIMSOXD
 70
     0
  9
$DIMSAH
 70
     0
  9
$DIMBLK1
  1

  9
$DIMBLK2
  1

  9
$DIMSTYLE
  2
Standard
  9
$DIMCLRD
 70
     0
  9
$DIMCLRE
 70
     0
  9
$DIMCLRT
 70
     0
  9
$DIMTFAC
 40
1.0
  9
$DIMGAP
 40
0.09
  9
$DIMJUST
 70
     0
  9
$DIMSD1
 70
     0
  9
$DIMSD2
 70
     0
  9
$DIMTOLJ
 70
     1
  9
$DIMTZIN
 70
     0
  9
$DIMALTZ
 70
     0
  9
$DIMALTTZ
 70
     0
  9
$DIMUPT
 70
     0
  9
$DIMDEC
 70
     4
  9
$DIMTDEC
 70
     4
  9
$DIMALTU
 70
     2
  9
$DIMALTTD
 70
     2
  9
$DIMTXSTY
  7
Standard
  9
$DIMAUNIT
 70
     0
  9
$DIMADEC
 70
     0
  9
$DIMALTRND
 40
0.0
  9
$DIMAZIN
 70
     0
  9
$DIMDSEP
 70
    46
  9
$DIMATFIT
 70
     3
  9
$DIMFRAC
 70
     0
  9
$DIMLDRBLK
  1

  9
$DIMLUNIT
 70
     2
  9
$DIMLWD
 70
    -2
  9
$DIMLWE
 70
    -2
  9
$DIMTMOVE
 70
     0
  9
$LUNITS
 70
     2
  9
$LUPREC
 70
     4
  9
$SKETCHINC
 40
0.1
  9
$FILLETRAD
 40
0.5
  9
$AUNITS
 70
     0
  9
$AUPREC
 70
     0
  9
$MENU
  1
.
  9
$ELEVATION
 40
0.0
  9
$PELEVATION
 40
0.0
  9
$THICKNESS
 40
0.0
  9
$LIMCHECK
 70
     0
  9
$CHAMFERA
 40
0.5
  9
$CHAMFERB
 40
0.5
  9
$CHAMFERC
 40
1.0
  9
$CHAMFERD
 40
0.0
  9
$SKPOLY
 70
     0
  9
$TDCREATE
 40
2457884.465249838
  9
$TDUCREATE
 40
2457884.631916505
  9
$TDUPDATE
 40
2457884.465249849
  9
$TDUUPDATE
 40
2457884.631916516
  9
$TDINDWG
 40
0.0000000116
  9
$TDUSRTIMER
 40
0.0000000116
  9
$USRTIMER
 70
     1
  9
$ANGBASE
 50
0.0
  9
$ANGDIR
 70
     0
  9
$PDMODE
 70
     0
  9
$PDSIZE
 40
0.0
  9
$PLINEWID
 40
0.0
  9
$SPLFRAME
 70
     0
  9
$SPLINETYPE
 70
     6
  9
$SPLINESEGS
 70
     8
  9
$HANDSEED
  5
E1
  9
$SURFTAB1
 70
     6
  9
$SURFTAB2
 70
     6
  9
$SURFTYPE
 70
     6
  9
$SURFU
 70
     6
  9
$SURFV
 70
     6
  9
$UCSBASE
  2

  9
$UCSNAME
  2

  9
$UCSORG
 10
0.0
 20
0.0
 30
0.0
  9
$UCSXDIR
 10
1.0
 20
0.0
 30
0.0
  9
$UCSYDIR
 10
0.0
 20
1.0
 30
0.0
  9
$UCSORTHOREF
  2

  9
$UCSORTHOVIEW
 70
     0
  9
$UCSORGTOP
 10
0.0
 20
0.0
 30
0.0
  9
$UCSORGBOTTOM
 10
0.0
 20
0.0
 30
0.0
  9
$UCSORGLEFT
 10
0.0
 20
0.0
 30
0.0
  9
$UCSORGRIGHT
 10
0.0
 20
0.0
 30
0.0
  9
$UCSORGFRONT
 10
0.0
 20
0.0
 30
0.0
  9
$UCSORGBACK
 10
0.0
 20
0.0
 30
0.0
  9
$PUCSBASE
  2

  9
$PUCSNAME
  2

  9
$PUCSORG
 10
0.0
 20
0.0
 30
0.0
  9
$PUCSXDIR
 10
1.0
 20
0.0
 30
0.0
  9
$PUCSYDIR
 10
0.0
 20
1.0
 30
0.0
  9
$PUCSORTHOREF
  2

  9
$PUCSORTHOVIEW
 70
     0
  9
$PUCSORGTOP
 10
0.0
 20
0.0
 30
0.0
  9
$PUCSORGBOTTOM
 10
0.0
 20
0.0
 30
0.0
  9
$PUCSORGLEFT
 10
0.0
 20
0.0
 30
0.0
  9
$PUCSORGRIGHT
 10
0.0
 20
0.0
 30
0.0
  9
$PUCSORGFRONT
 10
0.0
 20
0.0
 30
0.0
  9
$PUCSORGBACK
 10
0.0
 20
0.0
 30
0.0
  9
$USERI1
 70
     0
  9
$USERI2
 70
     0
  9
$USERI3
 70
     0
  9
$USERI4
 70
     0
  9
$USERI5
 70
     0
  9
$USERR1
 40
0.0
  9
$USERR2
 40
0.0
  9
$USERR3
 40
0.0
  9
$USERR4
 40
0.0
  9
$USERR5
 40
0.0
  9
$WORLDVIEW
 70
     1
  9
$SHADEDGE
 70
     3
  9
$SHADEDIF
 70
    70
  9
$TILEMODE
 70
     1
  9
$MAXACTVP
 70
    64
  9
$PINSBASE
 10
0.0
 20
0.0
 30
0.0
  9
$PLIMCHECK
 70
     0
  9
$PEXTMIN
 10
1.000000000000000E+20
 20
1.000000000000000E+20
 30
1.000000000000000E+20
  9
$PEXTMAX
 10
-1.000000000000000E+20
 20
-1.000000000000000E+20
 30
-1.000000000000000E+20
  9
$PLIMMIN
 10
0.0
 20
0.0
  9
$PLIMMAX
 10
12.0
 20
9.0
  9
$UNITMODE
 70
     0
  9
$VISRETAIN
 70
     1
  9
$PLINEGEN
 70
     0
  9
$PSLTSCALE
 70
     1
  9
$TREEDEPTH
 70
  3020
  9
$CMLSTYLE
  2
Standard
  9
$CMLJUST
 70
     0
  9
$CMLSCALE
 40
1.0
  9
$PROXYGRAPHICS
 70
     1
  9
$MEASUREMENT
 70
     0
  9
$CELWEIGHT
370
    -1
  9
$ENDCAPS
280
     0
  9
$JOINSTYLE
280
     0
  9
$LWDISPLAY
290
     1
  9
$INSUNITS
 70
     1
  9
$HYPERLINKBASE
  1

  9
$STYLESHEET
  1

  9
$XEDIT
290
     1
  9
$CEPSNTYPE
380
     0
  9
$PSTYLEMODE
290
     1
  9
$FINGERPRINTGUID
  2
{1E883491-5FC5-485B-AE6F-7F80C68ECE15}
  9
$VERSIONGUID
  2
{FAEB1C32-E019-11D5-929B-00C0DF256EC4}
  9
$EXTNAMES
290
     1
  9
$PSVPSCALE
 40
0.0
  9
$OLESTARTUP
290
     0
  9
$SORTENTS
280
   127
  9
$INDEXCTL
280
     0
  9
$HIDETEXT
280
     1
  9
$XCLIPFRAME
290
     0
  9
$HALOGAP
280
     0
  9
$OBSCOLOR
 70
   257
  9
$OBSLTYPE
280
     0
  9
$INTERSECTIONDISPLAY
280
     0
  9
$INTERSECTIONCOLOR
 70
   257
  9
$DIMASSOC
280
     2
  9
$PROJECTNAME
  1

  0
ENDSEC
  0
SECTION
  2
CLASSES
  0
CLASS
  1
ACDBDICTIONARYWDFLT
  2
AcDbDictionaryWithDefault
  3
ObjectDBX Classes
 90
        0
 91
        3
280
     0
281
     0
  0
CLASS
  1
VISUALSTYLE
  2
AcDbVisualStyle
  3
ObjectDBX Classes
 90
     4095
 91
        3
280
     0
281
     0
  0
ENDSEC
  0
SECTION
  2
TABLES
  0
TABLE
  2
VPORT
  5
8
330
0
100
AcDbSymbolTable
 70
     1
  0
VPORT
  5
29
330
8
100
AcDbSymbolTableRecord
100
AcDbViewportTableRecord
  2
*Active
 70
     0
 10
0.0
 20
0.0
 11
1.0
 21
1.0
 12
0.0
 22
0.0
 13
0.0
 23
0.0
 14
0.5
 24
0.5
 15
0.5
 25
0.5
 16
0.0
 26
0.0
 36
1.0
 17
11.99305555555556
 27
12.00694444444444
 37
0.0
 40
5.999999999999998
 41
1.0
 42
50.0
 43
0.0
 44
0.0
 50
0.0
 51
0.0
 71
     0
 72
   100
 73
     1
 74
     3
 75
     0
 76
     0
 77
     0
 78
     0
281
     0
 65
     1
110
0.0
120
0.0
130
0.0
111
1.0
121
0.0
131
0.0
112
0.0
122
1.0
132
0.0
 79
     0
146
0.0
  0
ENDTAB
  0
TABLE
  2
LTYPE
  5
5
330
0
100
AcDbSymbolTable
 70
     1
  0
LTYPE
  5
14
330
5
100
AcDbSymbolTableRecord
100
AcDbLinetypeTableRecord
  2
ByBlock
 70
     0
  3

 72
    65
 73
     0
 40
0.0
  0
LTYPE
  5
15
330
5
100
AcDbSymbolTableRecord
100
AcDbLinetypeTableRecord
  2
ByLayer
 70
     0
  3

 72
    65
 73
     0
 40
0.0
  0
LTYPE
  5
16
330
5
100
AcDbSymbolTableRecord
100
AcDbLinetypeTableRecord
  2
Continuous
 70
     0
  3
Solid line
 72
    65
 73
     0
 40
0.0
  0
ENDTAB
  0
TABLE
  2
LAYER
  5
2
330
0
100
AcDbSymbolTable
 70
     2
  0
LAYER
  5
10
330
2
100
AcDbSymbolTableRecord
100
AcDbLayerTableRecord
  2
0
 70
     0
 62
     7
  6
Continuous
370
    -3
390
F
  0
LAYER
  5
3B
330
2
100
AcDbSymbolTableRecord
100
AcDbLayerTableRecord
  2
Calque 1
 70
     0
 62
     7
  6
Continuous
370
    -3
390
F
  0
ENDTAB
  0
TABLE
  2
STYLE
  5
3
330
0
100
AcDbSymbolTable
 70
     1
  0
STYLE
  5
11
330
3
100
AcDbSymbolTableRecord
100
AcDbTextStyleTableRecord
  2
Standard
 70
     0
 40
0.0
 41
1.0
 50
0.0
 71
     0
 42
0.2
  3
txt
  4

  0
ENDTAB
  0
TABLE
  2
VIEW
  5
6
330
0
100
AcDbSymbolTable
 70
     0
  0
ENDTAB
  0
TABLE
  2
UCS
  5
7
330
0
100
AcDbSymbolTable
 70
     0
  0
ENDTAB
  0
TABLE
  2
APPID
  5
9
330
0
100
AcDbSymbolTable
 70
     1
  0
APPID
  5
12
330
9
100
AcDbSymbolTableRecord
100
AcDbRegAppTableRecord
  2
ACAD
 70
     0
  0
ENDTAB
  0
TABLE
  2
DIMSTYLE
  5
A
330
0
100
AcDbSymbolTable
 70
     1
100
AcDbDimStyleTable
  0
DIMSTYLE
105
27
330
A
100
AcDbSymbolTableRecord
100
AcDbDimStyleTableRecord
  2
Standard
 70
     0
340
11
  0
ENDTAB
  0
TABLE
  2
BLOCK_RECORD
  5
1
330
0
100
AcDbSymbolTable
 70
     8
  0
BLOCK_RECORD
  5
1F
330
1
100
AcDbSymbolTableRecord
100
AcDbBlockTableRecord
  2
*Model_Space
340
22
  0
BLOCK_RECORD
  5
1B
330
1
100
AcDbSymbolTableRecord
100
AcDbBlockTableRecord
  2
*Paper_Space
340
1E
  0
BLOCK_RECORD
  5
23
330
1
100
AcDbSymbolTableRecord
100
AcDbBlockTableRecord
  2
*Paper_Space0
340
26
  0
BLOCK_RECORD
  5
3C
330
1
100
AcDbSymbolTableRecord
100
AcDbBlockTableRecord
  2
block 2
340
0
102
{BLKREFS
331
3D
102
}
  0
BLOCK_RECORD
  5
40
330
1
100
AcDbSymbolTableRecord
100
AcDbBlockTableRecord
  2
block 3
340
0
102
{BLKREFS
331
41
102
}
  0
BLOCK_RECORD
  5
54
330
1
100
AcDbSymbolTableRecord
100
AcDbBlockTableRecord
  2
block 4
340
0
102
{BLKREFS
331
55
102
}
  0
BLOCK_RECORD
  5
58
330
1
100
AcDbSymbolTableRecord
100
AcDbBlockTableRecord
  2
block 5
340
0
102
{BLKREFS
331
59
102
}
  0
BLOCK_RECORD
  5
6D
330
1
100
AcDbSymbolTableRecord
100
AcDbBlockTableRecord
  2
block 6
340
0
102
{BLKREFS
331
6E
102
}
  0
BLOCK_RECORD
  5
9C
330
1
100
AcDbSymbolTableRecord
100
AcDbBlockTableRecord
  2
block 7
340
0
102
{BLKREFS
331
9D
102
}
  0
BLOCK_RECORD
  5
B1
330
1
100
AcDbSymbolTableRecord
100
AcDbBlockTableRecord
  2
block 8
340
0
102
{BLKREFS
331
B2
102
}
  0
ENDTAB
  0
ENDSEC
  0
SECTION
  2
BLOCKS
  0
BLOCK
  5
20
330
1F
100
AcDbEntity
  8
0
100
AcDbBlockBegin
  2
*Model_Space
 70
     0
 71
     0
 10
0.0
 20
0.0
 30
0.0
  3
*Model_Space
  1

  0
ENDBLK
  5
21
330
1F
100
AcDbEntity
  8
0
100
AcDbBlockEnd
  0
BLOCK
  5
1C
330
1B
100
AcDbEntity
 67
     1
  8
0
100
AcDbBlockBegin
  2
*Paper_Space
 70
     0
 71
     0
 10
0.0
 20
0.0
 30
0.0
  3
*Paper_Space
  1

  0
ENDBLK
  5
1D
330
1B
100
AcDbEntity
 67
     1
  8
0
100
AcDbBlockEnd
  0
BLOCK
  5
24
330
23
100
AcDbEntity
  8
0
100
AcDbBlockBegin
  2
*Paper_Space0
 70
     0
 71
     0
 10
0.0
 20
0.0
 30
0.0
  3
*Paper_Space0
  1

  0
ENDBLK
  5
25
330
23
100
AcDbEntity
  8
0
100
AcDbBlockEnd
  0
BLOCK
  5
3E
330
3C
100
AcDbEntity
  8
0
100
AcDbBlockBegin
  2
block 2
 70
     0
 71
     0
 10
0.0
 20
0.0
 30
0.0
  3
block 2
  1

  0
INSERT
  5
41
330
3C
100
AcDbEntity
  8
Calque 1
100
AcDbBlockReference
  2
block 3
 10
0.0
 20
0.0
 30
0.0
  0
INSERT
  5
55
330
3C
100
AcDbEntity
  8
Calque 1
100
AcDbBlockReference
  2
block 4
 10
0.0
 20
0.0
 30
0.0
  0
ENDBLK
  5
3F
330
3C
100
AcDbEntity
  8
0
100
AcDbBlockEnd
  0
BLOCK
  5
42
330
40
100
AcDbEntity
  8
0
100
AcDbBlockBegin
  2
block 3
 70
     0
 71
     0
 10
0.0
 20
0.0
 30
0.0
  3
block 3
  1

  0
SPLINE
  5
44
330
40
100
AcDbEntity
  8
Calque 1
370
     0
100
AcDbSpline
210
0.0
220
0.0
230
1.0
 70
    11
 71
     3
 72
    50
 73
    46
 74
     0
 42
0.0000000001
 43
0.0000000001
 40
0.0
 40
0.0
 40
0.0
 40
0.0
 40
1.0
 40
1.0
 40
1.0
 40
2.0
 40
2.0
 40
2.0
 40
3.0
 40
3.0
 40
3.0
 40
4.0
 40
4.0
 40
4.0
 40
5.0
 40
5.0
 40
5.0
 40
6.0
 40
6.0
 40
6.0
 40
7.0
 40
7.0
 40
7.0
 40
8.0
 40
8.0
 40
8.0
 40
9.0
 40
9.0
 40
9.0
 40
10.0
 40
10.0
 40
10.0
 40
11.0
 40
11.0
 40
11.0
 40
12.0
 40
12.0
 40
12.0
 40
13.0
 40
13.0
 40
13.0
 40
14.0
 40
14.0
 40
14.0
 40
15.0
 40
15.0
 40
15.0
 40
15.0
 10
11.13609483506944
 20
11.533203125
 30
0.0
 10
11.13361273871528
 20
11.61188422309028
 30
0.0
 10
11.13005913628472
 20
11.69033474392361
 30
0.0
 10
11.13058810763889
 20
11.76905653211806
 30
0.0
 10
11.1309814453125
 20
11.82794867621528
 30
0.0
 10
11.13670518663194
 20
11.90658908420139
 30
0.0
 10
11.06884765625
 20
11.93069118923611
 30
0.0
 10
11.01573350694444
 20
11.93069118923611
 30
0.0
 10
10.94140625
 20
11.94478352864583
 30
0.0
 10
10.92808702256944
 20
11.87592230902778
 30
0.0
 10
10.91208224826389
 20
11.79337565104167
 30
0.0
 10
10.91665310329861
 20
11.70010036892361
 30
0.0
 10
10.92172580295139
 20
11.61659071180556
 30
0.0
 10
10.926513671875
 20
11.53838433159722
 30
0.0
 10
10.92441134982639
 20
11.4619140625
 30
0.0
 10
10.92527940538194
 20
11.3839111328125
 30
0.0
 10
10.92613389756944
 20
11.30268012152778
 30
0.0
 10
10.85769314236111
 20
11.01174587673611
 30
0.0
 10
11.003173828125
 20
11.01174587673611
 30
0.0
 10
11.0513916015625
 20
11.01174587673611
 30
0.0
 10
11.10763888888889
 20
11.0098876953125
 30
0.0
 10
11.14093695746528
 20
11.05217827690972
 30
0.0
 10
11.17507595486111
 20
11.09555392795139
 30
0.0
 10
11.16399468315972
 20
11.16714138454861
 30
0.0
 10
11.16182454427083
 20
11.21797688802083
 30
0.0
 10
11.16030544704861
 20
11.25352647569444
 30
0.0
 10
11.15798611111111
 20
11.28889973958333
 30
0.0
 10
11.154296875
 20
11.32428656684028
 30
0.0
 10
11.15227593315972
 20
11.34346516927083
 30
0.0
 10
11.13625759548611
 20
11.39329698350694
 30
0.0
 10
11.1519775390625
 20
11.40909830729167
 30
0.0
 10
11.16806369357639
 20
11.42529296875
 30
0.0
 10
11.21786838107639
 20
11.41286892361111
 30
0.0
 10
11.23798285590278
 20
11.41209581163194
 30
0.0
 10
11.2734375
 20
11.41078016493056
 30
0.0
 10
11.29808213975694
 20
11.41240776909722
 30
0.0
 10
11.33353678385417
 20
11.41232638888889
 30
0.0
 10
11.35929361979167
 20
11.41225857204861
 30
0.0
 10
11.36895073784722
 20
11.41094292534722
 30
0.0
 10
11.39215766059028
 20
11.41102430555556
 30
0.0
 10
11.390625
 20
11.44525824652778
 30
0.0
 10
11.3931884765625
 20
11.48056369357639
 30
0.0
 10
11.39374457465278
 20
11.51493326822917
 30
0.0
 10
11.32706705729167
 20
11.50957573784722
 30
0.0
 10
11.13713921440972
 20
11.50177680121528
 30
0.0
 10
11.13609483506944
 20
11.533203125
 30
0.0
  0
HATCH
  5
45
330
40
100
AcDbEntity
  8
Calque 1
 62
    32
420
 13335334
100
AcDbHatch
 10
0.0
 20
0.0
 30
0.0
210
0.0
220
0.0
230
1.0
  2
SOLID
 70
     1
 71
     0
 91
        1
 92
        1
 93
        1
 72
     4
 94
        3
 73
     0
 74
     1
 95
       50
 96
       46
 40
0.0
 40
0.0
 40
0.0
 40
0.0
 40
1.0
 40
1.0
 40
1.0
 40
2.0
 40
2.0
 40
2.0
 40
3.0
 40
3.0
 40
3.0
 40
4.0
 40
4.0
 40
4.0
 40
5.0
 40
5.0
 40
5.0
 40
6.0
 40
6.0
 40
6.0
 40
7.0
 40
7.0
 40
7.0
 40
8.0
 40
8.0
 40
8.0
 40
9.0
 40
9.0
 40
9.0
 40
10.0
 40
10.0
 40
10.0
 40
11.0
 40
11.0
 40
11.0
 40
12.0
 40
12.0
 40
12.0
 40
13.0
 40
13.0
 40
13.0
 40
14.0
 40
14.0
 40
14.0
 40
15.0
 40
15.0
 40
15.0
 40
15.0
 10
11.13609483506944
 20
11.533203125
 10
11.13361273871528
 20
11.61188422309028
 10
11.13005913628472
 20
11.69033474392361
 10
11.13058810763889
 20
11.76905653211806
 10
11.1309814453125
 20
11.82794867621528
 10
11.13670518663194
 20
11.90658908420139
 10
11.06884765625
 20
11.93069118923611
 10
11.01573350694444
 20
11.93069118923611
 10
10.94140625
 20
11.94478352864583
 10
10.92808702256944
 20
11.87592230902778
 10
10.91208224826389
 20
11.79337565104167
 10
10.91665310329861
 20
11.70010036892361
 10
10.92172580295139
 20
11.61659071180556
 10
10.926513671875
 20
11.53838433159722
 10
10.92441134982639
 20
11.4619140625
 10
10.92527940538194
 20
11.3839111328125
 10
10.92613389756944
 20
11.30268012152778
 10
10.85769314236111
 20
11.01174587673611
 10
11.003173828125
 20
11.01174587673611
 10
11.0513916015625
 20
11.01174587673611
 10
11.10763888888889
 20
11.0098876953125
 10
11.14093695746528
 20
11.05217827690972
 10
11.17507595486111
 20
11.09555392795139
 10
11.16399468315972
 20
11.16714138454861
 10
11.16182454427083
 20
11.21797688802083
 10
11.16030544704861
 20
11.25352647569444
 10
11.15798611111111
 20
11.28889973958333
 10
11.154296875
 20
11.32428656684028
 10
11.15227593315972
 20
11.34346516927083
 10
11.13625759548611
 20
11.39329698350694
 10
11.1519775390625
 20
11.40909830729167
 10
11.16806369357639
 20
11.42529296875
 10
11.21786838107639
 20
11.41286892361111
 10
11.23798285590278
 20
11.41209581163194
 10
11.2734375
 20
11.41078016493056
 10
11.29808213975694
 20
11.41240776909722
 10
11.33353678385417
 20
11.41232638888889
 10
11.35929361979167
 20
11.41225857204861
 10
11.36895073784722
 20
11.41094292534722
 10
11.39215766059028
 20
11.41102430555556
 10
11.390625
 20
11.44525824652778
 10
11.3931884765625
 20
11.48056369357639
 10
11.39374457465278
 20
11.51493326822917
 10
11.32706705729167
 20
11.50957573784722
 10
11.13713921440972
 20
11.50177680121528
 10
11.13609483506944
 20
11.533203125
 97
        0
 75
     2
 76
     1
 98
        0
  0
SPLINE
  5
46
330
40
100
AcDbEntity
  8
Calque 1
370
     0
100
AcDbSpline
210
0.0
220
0.0
230
1.0
 70
    11
 71
     3
 72
    56
 73
    52
 74
     0
 42
0.0000000001
 43
0.0000000001
 40
0.0
 40
0.0
 40
0.0
 40
0.0
 40
1.0
 40
1.0
 40
1.0
 40
2.0
 40
2.0
 40
2.0
 40
3.0
 40
3.0
 40
3.0
 40
4.0
 40
4.0
 40
4.0
 40
5.0
 40
5.0
 40
5.0
 40
6.0
 40
6.0
 40
6.0
 40
7.0
 40
7.0
 40
7.0
 40
8.0
 40
8.0
 40
8.0
 40
9.0
 40
9.0
 40
9.0
 40
10.0
 40
10.0
 40
10.0
 40
11.0
 40
11.0
 40
11.0
 40
12.0
 40
12.0
 40
12.0
 40
13.0
 40
13.0
 40
13.0
 40
14.0
 40
14.0
 40
14.0
 40
15.0
 40
15.0
 40
15.0
 40
16.0
 40
16.0
 40
16.0
 40
17.0
 40
17.0
 40
17.0
 40
17.0
 10
13.07420518663194
 20
11.40595160590278
 30
0.0
 10
13.07557508680556
 20
11.49027506510417
 30
0.0
 10
13.06922743055556
 20
11.57501898871528
 30
0.0
 10
13.06681315104167
 20
11.6593017578125
 30
0.0
 10
13.06477864583333
 20
11.73163519965278
 30
0.0
 10
13.09128146701389
 20
11.80708821614583
 30
0.0
 10
13.06096733940972
 20
11.87571885850694
 30
0.0
 10
13.03290473090278
 20
11.9393310546875
 30
0.0
 10
12.94551595052083
 20
11.94580078125
 30
0.0
 10
12.88728841145833
 20
11.92206488715278
 30
0.0
 10
12.83797200520833
 20
11.90190972222222
 30
0.0
 10
12.83919270833333
 20
11.85244411892361
 30
0.0
 10
12.83643934461806
 20
11.8056640625
 30
0.0
 10
12.83155653211806
 20
11.72294108072917
 30
0.0
 10
12.83372667100694
 20
11.64434136284722
 30
0.0
 10
12.85008409288194
 20
11.56313747829861
 30
0.0
 10
12.85824924045139
 20
11.52244737413194
 30
0.0
 10
12.85008409288194
 20
11.52387152777778
 30
0.0
 10
12.81317816840278
 20
11.52408854166667
 30
0.0
 10
12.77195909288194
 20
11.52435980902778
 30
0.0
 10
12.73095703125
 20
11.5218505859375
 30
0.0
 10
12.68967013888889
 20
11.52286783854167
 30
0.0
 10
12.65684678819444
 20
11.523681640625
 30
0.0
 10
12.642578125
 20
11.52433268229167
 30
0.0
 10
12.61806911892361
 20
11.52487521701389
 30
0.0
 10
12.61806911892361
 20
11.47993977864583
 30
0.0
 10
12.61806911892361
 20
11.43500434027778
 30
0.0
 10
12.61806911892361
 20
11.39008246527778
 30
0.0
 10
12.69321017795139
 20
11.38722059461806
 30
0.0
 10
12.75425889756944
 20
11.38937717013889
 30
0.0
 10
12.82911512586806
 20
11.39793565538194
 30
0.0
 10
12.8466796875
 20
11.39995659722222
 30
0.0
 10
12.86001247829861
 20
11.40336100260417
 30
0.0
 10
12.86097547743056
 20
11.38193088107639
 30
0.0
 10
12.86272515190972
 20
11.34228515625
 30
0.0
 10
12.86130099826389
 20
11.30230034722222
 30
0.0
 10
12.86131456163194
 20
11.26262749565972
 30
0.0
 10
12.86134168836806
 20
11.21257866753472
 30
0.0
 10
12.86131456163194
 20
11.16255696614583
 30
0.0
 10
12.86131456163194
 20
11.11248101128472
 30
0.0
 10
12.86134168836806
 20
11.09153917100694
 30
0.0
 10
12.85685221354167
 20
11.06060112847222
 30
0.0
 10
12.8702392578125
 20
11.04207356770833
 30
0.0
 10
12.89900716145833
 20
11.00217013888889
 30
0.0
 10
12.98265245225694
 20
11.00493706597222
 30
0.0
 10
13.02034505208333
 20
11.02167426215278
 30
0.0
 10
13.07709418402778
 20
11.04686143663194
 30
0.0
 10
13.07823350694444
 20
11.09596082899306
 30
0.0
 10
13.07687717013889
 20
11.15167914496528
 30
0.0
 10
13.07481553819444
 20
11.23662651909722
 30
0.0
 10
13.07278103298611
 20
11.32097710503472
 30
0.0
 10
13.07420518663194
 20
11.40595160590278
 30
0.0
  0
HATCH
  5
47
330
40
100
AcDbEntity
  8
Calque 1
 62
    32
420
 13335334
100
AcDbHatch
 10
0.0
 20
0.0
 30
0.0
210
0.0
220
0.0
230
1.0
  2
SOLID
 70
     1
 71
     0
 91
        1
 92
        1
 93
        1
 72
     4
 94
        3
 73
     0
 74
     1
 95
       56
 96
       52
 40
0.0
 40
0.0
 40
0.0
 40
0.0
 40
1.0
 40
1.0
 40
1.0
 40
2.0
 40
2.0
 40
2.0
 40
3.0
 40
3.0
 40
3.0
 40
4.0
 40
4.0
 40
4.0
 40
5.0
 40
5.0
 40
5.0
 40
6.0
 40
6.0
 40
6.0
 40
7.0
 40
7.0
 40
7.0
 40
8.0
 40
8.0
 40
8.0
 40
9.0
 40
9.0
 40
9.0
 40
10.0
 40
10.0
 40
10.0
 40
11.0
 40
11.0
 40
11.0
 40
12.0
 40
12.0
 40
12.0
 40
13.0
 40
13.0
 40
13.0
 40
14.0
 40
14.0
 40
14.0
 40
15.0
 40
15.0
 40
15.0
 40
16.0
 40
16.0
 40
16.0
 40
17.0
 40
17.0
 40
17.0
 40
17.0
 10
13.07420518663194
 20
11.40595160590278
 10
13.07557508680556
 20
11.49027506510417
 10
13.06922743055556
 20
11.57501898871528
 10
13.06681315104167
 20
11.6593017578125
 10
13.06477864583333
 20
11.73163519965278
 10
13.09128146701389
 20
11.80708821614583
 10
13.06096733940972
 20
11.87571885850694
 10
13.03290473090278
 20
11.9393310546875
 10
12.94551595052083
 20
11.94580078125
 10
12.88728841145833
 20
11.92206488715278
 10
12.83797200520833
 20
11.90190972222222
 10
12.83919270833333
 20
11.85244411892361
 10
12.83643934461806
 20
11.8056640625
 10
12.83155653211806
 20
11.72294108072917
 10
12.83372667100694
 20
11.64434136284722
 10
12.85008409288194
 20
11.56313747829861
 10
12.85824924045139
 20
11.52244737413194
 10
12.85008409288194
 20
11.52387152777778
 10
12.81317816840278
 20
11.52408854166667
 10
12.77195909288194
 20
11.52435980902778
 10
12.73095703125
 20
11.5218505859375
 10
12.68967013888889
 20
11.52286783854167
 10
12.65684678819444
 20
11.523681640625
 10
12.642578125
 20
11.52433268229167
 10
12.61806911892361
 20
11.52487521701389
 10
12.61806911892361
 20
11.47993977864583
 10
12.61806911892361
 20
11.43500434027778
 10
12.61806911892361
 20
11.39008246527778
 10
12.69321017795139
 20
11.38722059461806
 10
12.75425889756944
 20
11.38937717013889
 10
12.82911512586806
 20
11.39793565538194
 10
12.8466796875
 20
11.39995659722222
 10
12.86001247829861
 20
11.40336100260417
 10
12.86097547743056
 20
11.38193088107639
 10
12.86272515190972
 20
11.34228515625
 10
12.86130099826389
 20
11.30230034722222
 10
12.86131456163194
 20
11.26262749565972
 10
12.86134168836806
 20
11.21257866753472
 10
12.86131456163194
 20
11.16255696614583
 10
12.86131456163194
 20
11.11248101128472
 10
12.86134168836806
 20
11.09153917100694
 10
12.85685221354167
 20
11.06060112847222
 10
12.8702392578125
 20
11.04207356770833
 10
12.89900716145833
 20
11.00217013888889
 10
12.98265245225694
 20
11.00493706597222
 10
13.02034505208333
 20
11.02167426215278
 10
13.07709418402778
 20
11.04686143663194
 10
13.07823350694444
 20
11.09596082899306
 10
13.07687717013889
 20
11.15167914496528
 10
13.07481553819444
 20
11.23662651909722
 10
13.07278103298611
 20
11.32097710503472
 10
13.07420518663194
 20
11.40595160590278
 97
        0
 75
     2
 76
     1
 98
        0
  0
SPLINE
  5
48
330
40
100
AcDbEntity
  8
Calque 1
370
     0
100
AcDbSpline
210
0.0
220
0.0
230
1.0
 70
    11
 71
     3
 72
    41
 73
    37
 74
     0
 42
0.0000000001
 43
0.0000000001
 40
0.0
 40
0.0
 40
0.0
 40
0.0
 40
1.0
 40
1.0
 40
1.0
 40
2.0
 40
2.0
 40
2.0
 40
3.0
 40
3.0
 40
3.0
 40
4.0
 40
4.0
 40
4.0
 40
5.0
 40
5.0
 40
5.0
 40
6.0
 40
6.0
 40
6.0
 40
7.0
 40
7.0
 40
7.0
 40
8.0
 40
8.0
 40
8.0
 40
9.0
 40
9.0
 40
9.0
 40
10.0
 40
10.0
 40
10.0
 40
11.0
 40
11.0
 40
11.0
 40
12.0
 40
12.0
 40
12.0
 40
12.0
 10
13.31220160590278
 20
11.50782606336806
 30
0.0
 10
13.31113009982639
 20
11.55586751302083
 30
0.0
 10
13.30806477864583
 20
11.60385470920139
 30
0.0
 10
13.304931640625
 20
11.65180121527778
 30
0.0
 10
13.30190700954861
 20
11.69843207465278
 30
0.0
 10
13.31289333767361
 20
11.74110243055556
 30
0.0
 10
13.31325954861111
 20
11.78687879774306
 30
0.0
 10
13.31349012586806
 20
11.82122124565972
 30
0.0
 10
13.30788845486111
 20
11.87657335069444
 30
0.0
 10
13.28302680121528
 20
11.90272352430556
 30
0.0
 10
13.25429958767361
 20
11.93295627170139
 30
0.0
 10
13.21858723958333
 20
11.93069118923611
 30
0.0
 10
13.18031141493056
 20
11.93069118923611
 30
0.0
 10
13.19415961371528
 20
11.93069118923611
 30
0.0
 10
13.16338433159722
 20
11.92404513888889
 30
0.0
 10
13.16570366753472
 20
11.92591688368056
 30
0.0
 10
13.08772786458333
 20
11.89671495225694
 30
0.0
 10
13.09499782986111
 20
11.83132595486111
 30
0.0
 10
13.09147135416667
 20
11.75039333767361
 30
0.0
 10
13.08725314670139
 20
11.65416124131944
 30
0.0
 10
13.10408528645833
 20
11.56043836805556
 30
0.0
 10
13.10936143663194
 20
11.46466742621528
 30
0.0
 10
13.11485460069444
 20
11.36436631944444
 30
0.0
 10
13.1124267578125
 20
11.26410590277778
 30
0.0
 10
13.11329481336806
 20
11.16375054253472
 30
0.0
 10
13.11359320746528
 20
11.13121202256944
 30
0.0
 10
13.10362413194444
 20
11.07858615451389
 30
0.0
 10
13.12702094184028
 20
11.05193413628472
 30
0.0
 10
13.15067545572917
 20
11.02503797743056
 30
0.0
 10
13.19879828559028
 20
11.01805284288194
 30
0.0
 10
13.23250325520833
 20
11.01907009548611
 30
0.0
 10
13.34162055121528
 20
11.02240668402778
 30
0.0
 10
13.3140869140625
 20
11.14934624565972
 30
0.0
 10
13.3123779296875
 20
11.22837999131944
 30
0.0
 10
13.31039767795139
 20
11.32154676649306
 30
0.0
 10
13.314208984375
 20
11.41474066840278
 30
0.0
 10
13.31220160590278
 20
11.50782606336806
 30
0.0
  0
HATCH
  5
49
330
40
100
AcDbEntity
  8
Calque 1
 62
    32
420
 13335334
100
AcDbHatch
 10
0.0
 20
0.0
 30
0.0
210
0.0
220
0.0
230
1.0
  2
SOLID
 70
     1
 71
     0
 91
        1
 92
        1
 93
        1
 72
     4
 94
        3
 73
     0
 74
     1
 95
       41
 96
       37
 40
0.0
 40
0.0
 40
0.0
 40
0.0
 40
1.0
 40
1.0
 40
1.0
 40
2.0
 40
2.0
 40
2.0
 40
3.0
 40
3.0
 40
3.0
 40
4.0
 40
4.0
 40
4.0
 40
5.0
 40
5.0
 40
5.0
 40
6.0
 40
6.0
 40
6.0
 40
7.0
 40
7.0
 40
7.0
 40
8.0
 40
8.0
 40
8.0
 40
9.0
 40
9.0
 40
9.0
 40
10.0
 40
10.0
 40
10.0
 40
11.0
 40
11.0
 40
11.0
 40
12.0
 40
12.0
 40
12.0
 40
12.0
 10
13.31220160590278
 20
11.50782606336806
 10
13.31113009982639
 20
11.55586751302083
 10
13.30806477864583
 20
11.60385470920139
 10
13.304931640625
 20
11.65180121527778
 10
13.30190700954861
 20
11.69843207465278
 10
13.31289333767361
 20
11.74110243055556
 10
13.31325954861111
 20
11.78687879774306
 10
13.31349012586806
 20
11.82122124565972
 10
13.30788845486111
 20
11.87657335069444
 10
13.28302680121528
 20
11.90272352430556
 10
13.25429958767361
 20
11.93295627170139
 10
13.21858723958333
 20
11.93069118923611
 10
13.18031141493056
 20
11.93069118923611
 10
13.19415961371528
 20
11.93069118923611
 10
13.16338433159722
 20
11.92404513888889
 10
13.16570366753472
 20
11.92591688368056
 10
13.08772786458333
 20
11.89671495225694
 10
13.09499782986111
 20
11.83132595486111
 10
13.09147135416667
 20
11.75039333767361
 10
13.08725314670139
 20
11.65416124131944
 10
13.10408528645833
 20
11.56043836805556
 10
13.10936143663194
 20
11.46466742621528
 10
13.11485460069444
 20
11.36436631944444
 10
13.1124267578125
 20
11.26410590277778
 10
13.11329481336806
 20
11.16375054253472
 10
13.11359320746528
 20
11.13121202256944
 10
13.10362413194444
 20
11.07858615451389
 10
13.12702094184028
 20
11.05193413628472
 10
13.15067545572917
 20
11.02503797743056
 10
13.19879828559028
 20
11.01805284288194
 10
13.23250325520833
 20
11.01907009548611
 10
13.34162055121528
 20
11.02240668402778
 10
13.3140869140625
 20
11.14934624565972
 10
13.3123779296875
 20
11.22837999131944
 10
13.31039767795139
 20
11.32154676649306
 10
13.314208984375
 20
11.41474066840278
 10
13.31220160590278
 20
11.50782606336806
 97
        0
 75
     2
 76
     1
 98
        0
  0
SPLINE
  5
4A
330
40
100
AcDbEntity
  8
Calque 1
370
     0
100
AcDbSpline
210
0.0
220
0.0
230
1.0
 70
    11
 71
     3
 72
    11
 73
     7
 74
     0
 42
0.0000000001
 43
0.0000000001
 40
0.0
 40
0.0
 40
0.0
 40
0.0
 40
1.0
 40
1.0
 40
1.0
 40
2.0
 40
2.0
 40
2.0
 40
2.0
 10
13.16570366753472
 20
11.92593044704861
 30
0.0
 10
13.1702880859375
 20
11.92763943142361
 30
0.0
 10
13.17513020833333
 20
11.92922634548611
 30
0.0
 10
13.18031141493056
 20
11.93070475260417
 30
0.0
 10
13.17042371961806
 20
11.92793782552083
 30
0.0
 10
13.16642252604167
 20
11.926513671875
 30
0.0
 10
13.16570366753472
 20
11.92593044704861
 30
0.0
  0
HATCH
  5
4B
330
40
100
AcDbEntity
  8
Calque 1
 62
    32
420
 13335334
100
AcDbHatch
 10
0.0
 20
0.0
 30
0.0
210
0.0
220
0.0
230
1.0
  2
SOLID
 70
     1
 71
     0
 91
        1
 92
        1
 93
        1
 72
     4
 94
        3
 73
     0
 74
     1
 95
       11
 96
        7
 40
0.0
 40
0.0
 40
0.0
 40
0.0
 40
1.0
 40
1.0
 40
1.0
 40
2.0
 40
2.0
 40
2.0
 40
2.0
 10
13.16570366753472
 20
11.92593044704861
 10
13.1702880859375
 20
11.92763943142361
 10
13.17513020833333
 20
11.92922634548611
 10
13.18031141493056
 20
11.93070475260417
 10
13.17042371961806
 20
11.92793782552083
 10
13.16642252604167
 20
11.926513671875
 10
13.16570366753472
 20
11.92593044704861
 97
        0
 75
     2
 76
     1
 98
        0
  0
SPLINE
  5
4C
330
40
100
AcDbEntity
  8
Calque 1
370
     0
100
AcDbSpline
210
0.0
220
0.0
230
1.0
 70
    11
 71
     3
 72
    29
 73
    25
 74
     0
 42
0.0000000001
 43
0.0000000001
 40
0.0
 40
0.0
 40
0.0
 40
0.0
 40
1.0
 40
1.0
 40
1.0
 40
2.0
 40
2.0
 40
2.0
 40
3.0
 40
3.0
 40
3.0
 40
4.0
 40
4.0
 40
4.0
 40
5.0
 40
5.0
 40
5.0
 40
6.0
 40
6.0
 40
6.0
 40
7.0
 40
7.0
 40
7.0
 40
8.0
 40
8.0
 40
8.0
 40
8.0
 10
13.47566731770833
 20
11.29619683159722
 30
0.0
 10
13.46803114149306
 20
11.25950792100694
 30
0.0
 10
13.47566731770833
 20
11.31441243489583
 30
0.0
 10
13.47566731770833
 20
11.29619683159722
 30
0.0
 10
13.47566731770833
 20
11.36653645833333
 30
0.0
 10
13.46648491753472
 20
11.43581814236111
 30
0.0
 10
13.46638997395833
 20
11.50644259982639
 30
0.0
 10
13.46629503038194
 20
11.57275390625
 30
0.0
 10
13.4808349609375
 20
11.65858289930556
 30
0.0
 10
13.46286349826389
 20
11.72258843315972
 30
0.0
 10
13.45191786024306
 20
11.76156955295139
 30
0.0
 10
13.39451768663194
 20
11.77982584635417
 30
0.0
 10
13.35791015625
 20
11.77218967013889
 30
0.0
 10
13.31978352864583
 20
11.76422797309028
 30
0.0
 10
13.32613118489583
 20
11.70795355902778
 30
0.0
 10
13.32613118489583
 20
11.679931640625
 30
0.0
 10
13.32618543836806
 20
11.52243381076389
 30
0.0
 10
13.33015950520833
 20
11.36494954427083
 30
0.0
 10
13.33614095052083
 20
11.20760091145833
 30
0.0
 10
13.33797200520833
 20
11.15885416666667
 30
0.0
 10
13.40346950954861
 20
11.09974500868056
 30
0.0
 10
13.45075141059028
 20
11.1396484375
 30
0.0
 10
13.48597547743056
 20
11.16935221354167
 30
0.0
 10
13.46735297309028
 20
11.25613064236111
 30
0.0
 10
13.47566731770833
 20
11.29619683159722
 30
0.0
  0
HATCH
  5
4D
330
40
100
AcDbEntity
  8
Calque 1
 62
    32
420
 13335334
100
AcDbHatch
 10
0.0
 20
0.0
 30
0.0
210
0.0
220
0.0
230
1.0
  2
SOLID
 70
     1
 71
     0
 91
        1
 92
        1
 93
        1
 72
     4
 94
        3
 73
     0
 74
     1
 95
       29
 96
       25
 40
0.0
 40
0.0
 40
0.0
 40
0.0
 40
1.0
 40
1.0
 40
1.0
 40
2.0
 40
2.0
 40
2.0
 40
3.0
 40
3.0
 40
3.0
 40
4.0
 40
4.0
 40
4.0
 40
5.0
 40
5.0
 40
5.0
 40
6.0
 40
6.0
 40
6.0
 40
7.0
 40
7.0
 40
7.0
 40
8.0
 40
8.0
 40
8.0
 40
8.0
 10
13.47566731770833
 20
11.29619683159722
 10
13.46803114149306
 20
11.25950792100694
 10
13.47566731770833
 20
11.31441243489583
 10
13.47566731770833
 20
11.29619683159722
 10
13.47566731770833
 20
11.36653645833333
 10
13.46648491753472
 20
11.43581814236111
 10
13.46638997395833
 20
11.50644259982639
 10
13.46629503038194
 20
11.57275390625
 10
13.4808349609375
 20
11.65858289930556
 10
13.46286349826389
 20
11.72258843315972
 10
13.45191786024306
 20
11.76156955295139
 10
13.39451768663194
 20
11.77982584635417
 10
13.35791015625
 20
11.77218967013889
 10
13.31978352864583
 20
11.76422797309028
 10
13.32613118489583
 20
11.70795355902778
 10
13.32613118489583
 20
11.679931640625
 10
13.32618543836806
 20
11.52243381076389
 10
13.33015950520833
 20
11.36494954427083
 10
13.33614095052083
 20
11.20760091145833
 10
13.33797200520833
 20
11.15885416666667
 10
13.40346950954861
 20
11.09974500868056
 10
13.45075141059028
 20
11.1396484375
 10
13.48597547743056
 20
11.16935221354167
 10
13.46735297309028
 20
11.25613064236111
 10
13.47566731770833
 20
11.29619683159722
 97
        0
 75
     2
 76
     1
 98
        0
  0
SPLINE
  5
4E
330
40
100
AcDbEntity
  8
Calque 1
370
     0
100
AcDbSpline
210
0.0
220
0.0
230
1.0
 70
    11
 71
     3
 72
    11
 73
     7
 74
     0
 42
0.0000000001
 43
0.0000000001
 40
0.0
 40
0.0
 40
0.0
 40
0.0
 40
1.0
 40
1.0
 40
1.0
 40
2.0
 40
2.0
 40
2.0
 40
2.0
 10
10.80018446180556
 20
11.93113878038194
 30
0.0
 10
10.80540635850694
 20
11.92983669704861
 30
0.0
 10
10.81031629774306
 20
11.9283447265625
 30
0.0
 10
10.81492784288194
 20
11.92678493923611
 30
0.0
 10
10.81418185763889
 20
11.9273681640625
 30
0.0
 10
10.81012641059028
 20
11.92864312065972
 30
0.0
 10
10.80018446180556
 20
11.93113878038194
 30
0.0
  0
HATCH
  5
4F
330
40
100
AcDbEntity
  8
Calque 1
 62
    32
420
 13335334
100
AcDbHatch
 10
0.0
 20
0.0
 30
0.0
210
0.0
220
0.0
230
1.0
  2
SOLID
 70
     1
 71
     0
 91
        1
 92
        1
 93
        1
 72
     4
 94
        3
 73
     0
 74
     1
 95
       11
 96
        7
 40
0.0
 40
0.0
 40
0.0
 40
0.0
 40
1.0
 40
1.0
 40
1.0
 40
2.0
 40
2.0
 40
2.0
 40
2.0
 10
10.80018446180556
 20
11.93113878038194
 10
10.80540635850694
 20
11.92983669704861
 10
10.81031629774306
 20
11.9283447265625
 10
10.81492784288194
 20
11.92678493923611
 10
10.81418185763889
 20
11.9273681640625
 10
10.81012641059028
 20
11.92864312065972
 10
10.80018446180556
 20
11.93113878038194
 97
        0
 75
     2
 76
     1
 98
        0
  0
SPLINE
  5
50
330
40
100
AcDbEntity
  8
Calque 1
370
     0
100
AcDbSpline
210
0.0
220
0.0
230
1.0
 70
    11
 71
     3
 72
    41
 73
    37
 74
     0
 42
0.0000000001
 43
0.0000000001
 40
0.0
 40
0.0
 40
0.0
 40
0.0
 40
1.0
 40
1.0
 40
1.0
 40
2.0
 40
2.0
 40
2.0
 40
3.0
 40
3.0
 40
3.0
 40
4.0
 40
4.0
 40
4.0
 40
5.0
 40
5.0
 40
5.0
 40
6.0
 40
6.0
 40
6.0
 40
7.0
 40
7.0
 40
7.0
 40
8.0
 40
8.0
 40
8.0
 40
9.0
 40
9.0
 40
9.0
 40
10.0
 40
10.0
 40
10.0
 40
11.0
 40
11.0
 40
11.0
 40
12.0
 40
12.0
 40
12.0
 40
12.0
 10
10.89423285590278
 20
11.75351291232639
 30
0.0
 10
10.88837348090278
 20
11.83428276909722
 30
0.0
 10
10.89375813802083
 20
11.89988878038194
 30
0.0
 10
10.81492784288194
 20
11.92677137586806
 30
0.0
 10
10.81727430555556
 20
11.92499457465278
 30
0.0
 10
10.78636338975694
 20
11.93073187934028
 30
0.0
 10
10.80018446180556
 20
11.93112521701389
 30
0.0
 10
10.76192220052083
 20
11.93002658420139
 30
0.0
 10
10.72618272569444
 20
11.93123372395833
 30
0.0
 10
10.69831000434028
 20
11.90017361111111
 30
0.0
 10
10.67424858940972
 20
11.87330457899306
 30
0.0
 10
10.67024739583333
 20
11.81781684027778
 30
0.0
 10
10.6715087890625
 20
11.78351508246528
 30
0.0
 10
10.67319064670139
 20
11.73777940538194
 30
0.0
 10
10.68541124131944
 20
11.69539388020833
 30
0.0
 10
10.68372938368056
 20
11.64873589409722
 30
0.0
 10
10.68202039930556
 20
11.6007080078125
 30
0.0
 10
10.68035210503472
 20
11.55265299479167
 30
0.0
 10
10.68070475260417
 20
11.50461154513889
 30
0.0
 10
10.68138292100694
 20
11.4114990234375
 30
0.0
 10
10.68792046440972
 20
11.31845431857639
 30
0.0
 10
10.68863932291667
 20
11.22526041666667
 30
0.0
 10
10.68923611111111
 20
11.14618598090278
 30
0.0
 10
10.66541883680556
 20
11.01852756076389
 30
0.0
 10
10.77459038628472
 20
11.01836480034722
 30
0.0
 10
10.80828179253472
 20
11.01832411024306
 30
0.0
 10
10.856201171875
 20
11.02671983506944
 30
0.0
 10
10.87905544704861
 20
11.05430772569444
 30
0.0
 10
10.90167914496528
 20
11.08163791232639
 30
0.0
 10
10.89017740885417
 20
11.13392469618056
 30
0.0
 10
10.88951280381944
 20
11.16649034288194
 30
0.0
 10
10.88749186197917
 20
11.26430935329861
 30
0.0
 10
10.88231065538194
 20
11.36200629340278
 30
0.0
 10
10.88450792100694
 20
11.45990668402778
 30
0.0
 10
10.88673231336806
 20
11.55826822916667
 30
0.0
 10
10.90140787760417
 20
11.655029296875
 30
0.0
 10
10.89423285590278
 20
11.75351291232639
 30
0.0
  0
HATCH
  5
51
330
40
100
AcDbEntity
  8
Calque 1
 62
    32
420
 13335334
100
AcDbHatch
 10
0.0
 20
0.0
 30
0.0
210
0.0
220
0.0
230
1.0
  2
SOLID
 70
     1
 71
     0
 91
        1
 92
        1
 93
        1
 72
     4
 94
        3
 73
     0
 74
     1
 95
       41
 96
       37
 40
0.0
 40
0.0
 40
0.0
 40
0.0
 40
1.0
 40
1.0
 40
1.0
 40
2.0
 40
2.0
 40
2.0
 40
3.0
 40
3.0
 40
3.0
 40
4.0
 40
4.0
 40
4.0
 40
5.0
 40
5.0
 40
5.0
 40
6.0
 40
6.0
 40
6.0
 40
7.0
 40
7.0
 40
7.0
 40
8.0
 40
8.0
 40
8.0
 40
9.0
 40
9.0
 40
9.0
 40
10.0
 40
10.0
 40
10.0
 40
11.0
 40
11.0
 40
11.0
 40
12.0
 40
12.0
 40
12.0
 40
12.0
 10
10.89423285590278
 20
11.75351291232639
 10
10.88837348090278
 20
11.83428276909722
 10
10.89375813802083
 20
11.89988878038194
 10
10.81492784288194
 20
11.92677137586806
 10
10.81727430555556
 20
11.92499457465278
 10
10.78636338975694
 20
11.93073187934028
 10
10.80018446180556
 20
11.93112521701389
 10
10.76192220052083
 20
11.93002658420139
 10
10.72618272569444
 20
11.93123372395833
 10
10.69831000434028
 20
11.90017361111111
 10
10.67424858940972
 20
11.87330457899306
 10
10.67024739583333
 20
11.81781684027778
 10
10.6715087890625
 20
11.78351508246528
 10
10.67319064670139
 20
11.73777940538194
 10
10.68541124131944
 20
11.69539388020833
 10
10.68372938368056
 20
11.64873589409722
 10
10.68202039930556
 20
11.6007080078125
 10
10.68035210503472
 20
11.55265299479167
 10
10.68070475260417
 20
11.50461154513889
 10
10.68138292100694
 20
11.4114990234375
 10
10.68792046440972
 20
11.31845431857639
 10
10.68863932291667
 20
11.22526041666667
 10
10.68923611111111
 20
11.14618598090278
 10
10.66541883680556
 20
11.01852756076389
 10
10.77459038628472
 20
11.01836480034722
 10
10.80828179253472
 20
11.01832411024306
 10
10.856201171875
 20
11.02671983506944
 10
10.87905544704861
 20
11.05430772569444
 10
10.90167914496528
 20
11.08163791232639
 10
10.89017740885417
 20
11.13392469618056
 10
10.88951280381944
 20
11.16649034288194
 10
10.88749186197917
 20
11.26430935329861
 10
10.88231065538194
 20
11.36200629340278
 10
10.88450792100694
 20
11.45990668402778
 10
10.88673231336806
 20
11.55826822916667
 10
10.90140787760417
 20
11.655029296875
 10
10.89423285590278
 20
11.75351291232639
 97
        0
 75
     2
 76
     1
 98
        0
  0
SPLINE
  5
52
330
40
100
AcDbEntity
  8
Calque 1
370
     0
100
AcDbSpline
210
0.0
220
0.0
230
1.0
 70
    11
 71
     3
 72
    29
 73
    25
 74
     0
 42
0.0000000001
 43
0.0000000001
 40
0.0
 40
0.0
 40
0.0
 40
0.0
 40
1.0
 40
1.0
 40
1.0
 40
2.0
 40
2.0
 40
2.0
 40
3.0
 40
3.0
 40
3.0
 40
4.0
 40
4.0
 40
4.0
 40
5.0
 40
5.0
 40
5.0
 40
6.0
 40
6.0
 40
6.0
 40
7.0
 40
7.0
 40
7.0
 40
8.0
 40
8.0
 40
8.0
 40
8.0
 10
10.64998372395833
 20
11.74209255642361
 30
0.0
 10
10.64813910590278
 20
11.79081217447917
 30
0.0
 10
10.5826416015625
 20
11.84990776909722
 30
0.0
 10
10.53534613715278
 20
11.81003146701389
 30
0.0
 10
10.50013563368056
 20
11.78031412760417
 30
0.0
 10
10.51877170138889
 20
11.69352213541667
 30
0.0
 10
10.51043023003472
 20
11.65351019965278
 30
0.0
 10
10.51805284288194
 20
11.69014485677083
 30
0.0
 10
10.51043023003472
 20
11.63524034288194
 30
0.0
 10
10.51043023003472
 20
11.65351019965278
 30
0.0
 10
10.51043023003472
 20
11.58315700954861
 30
0.0
 10
10.51963975694444
 20
11.51387532552083
 30
0.0
 10
10.51970757378472
 20
11.44329155815972
 30
0.0
 10
10.51978895399306
 20
11.37693956163194
 30
0.0
 10
10.50523546006944
 20
11.29111056857639
 30
0.0
 10
10.52323404947917
 20
11.22710503472222
 30
0.0
 10
10.53420681423611
 20
11.1881103515625
 30
0.0
 10
10.59160698784722
 20
11.16985405815972
 30
0.0
 10
10.62818739149306
 20
11.17751736111111
 30
0.0
 10
10.66631401909722
 20
11.18547905815972
 30
0.0
 10
10.65999348958333
 20
11.24171278211806
 30
0.0
 10
10.65999348958333
 20
11.26976182725694
 30
0.0
 10
10.65992567274306
 20
11.42724609375
 30
0.0
 10
10.65591091579861
 20
11.584716796875
 30
0.0
 10
10.64998372395833
 20
11.74209255642361
 30
0.0
  0
HATCH
  5
53
330
40
100
AcDbEntity
  8
Calque 1
 62
    32
420
 13335334
100
AcDbHatch
 10
0.0
 20
0.0
 30
0.0
210
0.0
220
0.0
230
1.0
  2
SOLID
 70
     1
 71
     0
 91
        1
 92
        1
 93
        1
 72
     4
 94
        3
 73
     0
 74
     1
 95
       29
 96
       25
 40
0.0
 40
0.0
 40
0.0
 40
0.0
 40
1.0
 40
1.0
 40
1.0
 40
2.0
 40
2.0
 40
2.0
 40
3.0
 40
3.0
 40
3.0
 40
4.0
 40
4.0
 40
4.0
 40
5.0
 40
5.0
 40
5.0
 40
6.0
 40
6.0
 40
6.0
 40
7.0
 40
7.0
 40
7.0
 40
8.0
 40
8.0
 40
8.0
 40
8.0
 10
10.64998372395833
 20
11.74209255642361
 10
10.64813910590278
 20
11.79081217447917
 10
10.5826416015625
 20
11.84990776909722
 10
10.53534613715278
 20
11.81003146701389
 10
10.50013563368056
 20
11.78031412760417
 10
10.51877170138889
 20
11.69352213541667
 10
10.51043023003472
 20
11.65351019965278
 10
10.51805284288194
 20
11.69014485677083
 10
10.51043023003472
 20
11.63524034288194
 10
10.51043023003472
 20
11.65351019965278
 10
10.51043023003472
 20
11.58315700954861
 10
10.51963975694444
 20
11.51387532552083
 10
10.51970757378472
 20
11.44329155815972
 10
10.51978895399306
 20
11.37693956163194
 10
10.50523546006944
 20
11.29111056857639
 10
10.52323404947917
 20
11.22710503472222
 10
10.53420681423611
 20
11.1881103515625
 10
10.59160698784722
 20
11.16985405815972
 10
10.62818739149306
 20
11.17751736111111
 10
10.66631401909722
 20
11.18547905815972
 10
10.65999348958333
 20
11.24171278211806
 10
10.65999348958333
 20
11.26976182725694
 10
10.65992567274306
 20
11.42724609375
 10
10.65591091579861
 20
11.584716796875
 10
10.64998372395833
 20
11.74209255642361
 97
        0
 75
     2
 76
     1
 98
        0
  0
ENDBLK
  5
43
330
40
100
AcDbEntity
  8
0
100
AcDbBlockEnd
  0
BLOCK
  5
56
330
54
100
AcDbEntity
  8
0
100
AcDbBlockBegin
  2
block 4
 70
     0
 71
     0
 10
0.0
 20
0.0
 30
0.0
  3
block 4
  1

  0
INSERT
  5
59
330
54
100
AcDbEntity
  8
Calque 1
100
AcDbBlockReference
  2
block 5
 10
0.0
 20
0.0
 30
0.0
  0
INSERT
  5
6E
330
54
100
AcDbEntity
  8
Calque 1
100
AcDbBlockReference
  2
block 6
 10
0.0
 20
0.0
 30
0.0
  0
INSERT
  5
9D
330
54
100
AcDbEntity
  8
Calque 1
100
AcDbBlockReference
  2
block 7
 10
0.0
 20
0.0
 30
0.0
  0
INSERT
  5
B2
330
54
100
AcDbEntity
  8
Calque 1
100
AcDbBlockReference
  2
block 8
 10
0.0
 20
0.0
 30
0.0
  0
ENDBLK
  5
57
330
54
100
AcDbEntity
  8
0
100
AcDbBlockEnd
  0
BLOCK
  5
5A
330
58
100
AcDbEntity
  8
0
100
AcDbBlockBegin
  2
block 5
 70
     0
 71
     0
 10
0.0
 20
0.0
 30
0.0
  3
block 5
  1

  0
POLYLINE
  5
5C
330
58
100
AcDbEntity
  8
Calque 1
370
     0
100
AcDb2dPolyline
 66
     1
 10
0.0
 20
0.0
 30
0.0
  0
VERTEX
  5
5D
330
5C
100
AcDbEntity
  8
Calque 1
370
     0
100
AcDbVertex
100
AcDb2dVertex
 10
11.82333713107639
 20
13.46538628472222
 30
0.0
  0
VERTEX
  5
5E
330
5C
100
AcDbEntity
  8
Calque 1
370
     0
100
AcDbVertex
100
AcDb2dVertex
 10
11.63572862413194
 20
14.09571668836806
 30
0.0
  0
VERTEX
  5
5F
330
5C
100
AcDbEntity
  8
Calque 1
370
     0
100
AcDbVertex
100
AcDb2dVertex
 10
11.47705078125
 20
14.09571668836806
 30
0.0
  0
VERTEX
  5
60
330
5C
100
AcDbEntity
  8
Calque 1
370
     0
100
AcDbVertex
100
AcDb2dVertex
 10
11.47705078125
 20
13.15780978732639
 30
0.0
  0
VERTEX
  5
61
330
5C
100
AcDbEntity
  8
Calque 1
370
     0
100
AcDbVertex
100
AcDb2dVertex
 10
11.618408203125
 20
13.15780978732639
 30
0.0
  0
VERTEX
  5
62
330
5C
100
AcDbEntity
  8
Calque 1
370
     0
100
AcDbVertex
100
AcDb2dVertex
 10
11.618408203125
 20
13.75839572482639
 30
0.0
  0
VERTEX
  5
63
330
5C
100
AcDbEntity
  8
Calque 1
370
     0
100
AcDbVertex
100
AcDb2dVertex
 10
11.8128662109375
 20
13.15780978732639
 30
0.0
  0
VERTEX
  5
64
330
5C
100
AcDbEntity
  8
Calque 1
370
     0
100
AcDbVertex
100
AcDb2dVertex
 10
11.96469455295139
 20
13.15780978732639
 30
0.0
  0
VERTEX
  5
65
330
5C
100
AcDbEntity
  8
Calque 1
370
     0
100
AcDbVertex
100
AcDb2dVertex
 10
11.96469455295139
 20
14.09571668836806
 30
0.0
  0
VERTEX
  5
66
330
5C
100
AcDbEntity
  8
Calque 1
370
     0
100
AcDbVertex
100
AcDb2dVertex
 10
11.82333713107639
 20
14.09571668836806
 30
0.0
  0
VERTEX
  5
67
330
5C
100
AcDbEntity
  8
Calque 1
370
     0
100
AcDbVertex
100
AcDb2dVertex
 10
11.82333713107639
 20
13.46538628472222
 30
0.0
  0
SEQEND
  5
68
330
5C
100
AcDbEntity
  8
Calque 1
370
     0
  0
HATCH
  5
69
330
58
100
AcDbEntity
  8
Calque 1
 62
   250
420
  1907995
100
AcDbHatch
 10
0.0
 20
0.0
 30
0.0
210
0.0
220
0.0
230
1.0
  2
SOLID
 70
     1
 71
     0
 91
        1
 92
        1
 93
       10
 72
     1
 10
11.82333713107639
 20
13.46538628472222
 11
11.63572862413194
 21
14.09571668836806
 72
     1
 10
11.63572862413194
 20
14.09571668836806
 11
11.47705078125
 21
14.09571668836806
 72
     1
 10
11.47705078125
 20
14.09571668836806
 11
11.47705078125
 21
13.15780978732639
 72
     1
 10
11.47705078125
 20
13.15780978732639
 11
11.618408203125
 21
13.15780978732639
 72
     1
 10
11.618408203125
 20
13.15780978732639
 11
11.618408203125
 21
13.75839572482639
 72
     1
 10
11.618408203125
 20
13.75839572482639
 11
11.8128662109375
 21
13.15780978732639
 72
     1
 10
11.8128662109375
 20
13.15780978732639
 11
11.96469455295139
 21
13.15780978732639
 72
     1
 10
11.96469455295139
 20
13.15780978732639
 11
11.96469455295139
 21
14.09571668836806
 72
     1
 10
11.96469455295139
 20
14.09571668836806
 11
11.82333713107639
 21
14.09571668836806
 72
     1
 10
11.82333713107639
 20
14.09571668836806
 11
11.82333713107639
 21
13.46538628472222
 97
        0
 75
     2
 76
     1
 98
        0
  0
SPLINE
  5
6A
330
58
100
AcDbEntity
  8
Calque 1
370
     0
100
AcDbSpline
210
0.0
220
0.0
230
1.0
 70
    11
 71
     3
 72
    35
 73
    31
 74
     0
 42
0.0000000001
 43
0.0000000001
 40
0.0
 40
0.0
 40
0.0
 40
0.0
 40
1.0
 40
1.0
 40
1.0
 40
2.0
 40
2.0
 40
2.0
 40
3.0
 40
3.0
 40
3.0
 40
4.0
 40
4.0
 40
4.0
 40
5.0
 40
5.0
 40
5.0
 40
6.0
 40
6.0
 40
6.0
 40
7.0
 40
7.0
 40
7.0
 40
8.0
 40
8.0
 40
8.0
 40
9.0
 40
9.0
 40
9.0
 40
10.0
 40
10.0
 40
10.0
 40
10.0
 10
12.47140842013889
 20
14.04112413194444
 30
0.0
 10
12.42778862847222
 20
14.08500162760417
 30
0.0
 10
12.37479654947917
 20
14.10693359375
 30
0.0
 10
12.31248643663194
 20
14.10693359375
 30
0.0
 10
12.25113932291667
 20
14.10693359375
 30
0.0
 10
12.19854058159722
 20
14.08512369791667
 30
0.0
 10
12.15467664930556
 20
14.04149034288194
 30
0.0
 10
12.11078559027778
 20
13.99785698784722
 30
0.0
 10
12.08882649739583
 20
13.94486490885417
 30
0.0
 10
12.08882649739583
 20
13.88255479600694
 30
0.0
 10
12.08882649739583
 20
13.88255479600694
 30
0.0
 10
12.08882649739583
 20
13.3709716796875
 30
0.0
 10
12.08882649739583
 20
13.3709716796875
 30
0.0
 10
12.08882649739583
 20
13.30913628472222
 30
0.0
 10
12.11054144965278
 20
13.25627983940972
 30
0.0
 10
12.15391710069444
 20
13.21241590711806
 30
0.0
 10
12.19730631510417
 20
13.16852484809028
 30
0.0
 10
12.25013563368056
 20
13.14659288194444
 30
0.0
 10
12.31248643663194
 20
13.14659288194444
 30
0.0
 10
12.37430826822917
 20
13.14659288194444
 30
0.0
 10
12.42716471354167
 20
13.16840277777778
 30
0.0
 10
12.47105577256944
 20
13.2120361328125
 30
0.0
 10
12.51491970486111
 20
13.25568305121528
 30
0.0
 10
12.536865234375
 20
13.30864800347222
 30
0.0
 10
12.536865234375
 20
13.3709716796875
 30
0.0
 10
12.536865234375
 20
13.3709716796875
 30
0.0
 10
12.536865234375
 20
13.88255479600694
 30
0.0
 10
12.536865234375
 20
13.88255479600694
 30
0.0
 10
12.53685167100694
 20
13.94439019097222
 30
0.0
 10
12.51505533854167
 20
13.99724663628472
 30
0.0
 10
12.47140842013889
 20
14.04112413194444
 30
0.0
  0
SPLINE
  5
6B
330
58
100
AcDbEntity
  8
Calque 1
370
     0
100
AcDbSpline
210
0.0
220
0.0
230
1.0
 70
    11
 71
     3
 72
    35
 73
    31
 74
     0
 42
0.0000000001
 43
0.0000000001
 40
0.0
 40
0.0
 40
0.0
 40
0.0
 40
1.0
 40
1.0
 40
1.0
 40
2.0
 40
2.0
 40
2.0
 40
3.0
 40
3.0
 40
3.0
 40
4.0
 40
4.0
 40
4.0
 40
5.0
 40
5.0
 40
5.0
 40
6.0
 40
6.0
 40
6.0
 40
7.0
 40
7.0
 40
7.0
 40
8.0
 40
8.0
 40
8.0
 40
9.0
 40
9.0
 40
9.0
 40
10.0
 40
10.0
 40
10.0
 40
10.0
 10
12.3895263671875
 20
13.37245008680556
 30
0.0
 10
12.3895263671875
 20
13.35002983940972
 30
0.0
 10
12.38165961371528
 20
13.33095974392361
 30
0.0
 10
12.365966796875
 20
13.31523980034722
 30
0.0
 10
12.35026041666667
 20
13.29954698350694
 30
0.0
 10
12.33119032118056
 20
13.29169379340278
 30
0.0
 10
12.30874294704861
 20
13.29169379340278
 30
0.0
 10
12.28629557291667
 20
13.29169379340278
 30
0.0
 10
12.26710340711806
 20
13.29953342013889
 30
0.0
 10
12.25115288628472
 20
13.31523980034722
 30
0.0
 10
12.23520236545139
 20
13.33095974392361
 30
0.0
 10
12.22722710503472
 20
13.35002983940972
 30
0.0
 10
12.22722710503472
 20
13.37245008680556
 30
0.0
 10
12.22722710503472
 20
13.37245008680556
 30
0.0
 10
12.22722710503472
 20
13.88555230034722
 30
0.0
 10
12.22722710503472
 20
13.88555230034722
 30
0.0
 10
12.22722710503472
 20
13.90799967447917
 30
0.0
 10
12.23520236545139
 20
13.92706976996528
 30
0.0
 10
12.25115288628472
 20
13.94277615017361
 30
0.0
 10
12.26711697048611
 20
13.95848253038194
 30
0.0
 10
12.28629557291667
 20
13.96634928385417
 30
0.0
 10
12.30874294704861
 20
13.96634928385417
 30
0.0
 10
12.33119032118056
 20
13.96634928385417
 30
0.0
 10
12.35026041666667
 20
13.95849609375
 30
0.0
 10
12.365966796875
 20
13.94277615017361
 30
0.0
 10
12.38165961371528
 20
13.92706976996528
 30
0.0
 10
12.3895263671875
 20
13.90799967447917
 30
0.0
 10
12.3895263671875
 20
13.88555230034722
 30
0.0
 10
12.3895263671875
 20
13.88555230034722
 30
0.0
 10
12.3895263671875
 20
13.37245008680556
 30
0.0
 10
12.3895263671875
 20
13.37245008680556
 30
0.0
  0
HATCH
  5
6C
330
58
100
AcDbEntity
  8
Calque 1
 62
   250
420
  1907995
100
AcDbHatch
 10
0.0
 20
0.0
 30
0.0
210
0.0
220
0.0
230
1.0
  2
SOLID
 70
     1
 71
     0
 91
        2
 92
        1
 93
        1
 72
     4
 94
        3
 73
     0
 74
     1
 95
       35
 96
       31
 40
0.0
 40
0.0
 40
0.0
 40
0.0
 40
1.0
 40
1.0
 40
1.0
 40
2.0
 40
2.0
 40
2.0
 40
3.0
 40
3.0
 40
3.0
 40
4.0
 40
4.0
 40
4.0
 40
5.0
 40
5.0
 40
5.0
 40
6.0
 40
6.0
 40
6.0
 40
7.0
 40
7.0
 40
7.0
 40
8.0
 40
8.0
 40
8.0
 40
9.0
 40
9.0
 40
9.0
 40
10.0
 40
10.0
 40
10.0
 40
10.0
 10
12.47140842013889
 20
14.04112413194444
 10
12.42778862847222
 20
14.08500162760417
 10
12.37479654947917
 20
14.10693359375
 10
12.31248643663194
 20
14.10693359375
 10
12.25113932291667
 20
14.10693359375
 10
12.19854058159722
 20
14.08512369791667
 10
12.15467664930556
 20
14.04149034288194
 10
12.11078559027778
 20
13.99785698784722
 10
12.08882649739583
 20
13.94486490885417
 10
12.08882649739583
 20
13.88255479600694
 10
12.08882649739583
 20
13.88255479600694
 10
12.08882649739583
 20
13.3709716796875
 10
12.08882649739583
 20
13.3709716796875
 10
12.08882649739583
 20
13.30913628472222
 10
12.11054144965278
 20
13.25627983940972
 10
12.15391710069444
 20
13.21241590711806
 10
12.19730631510417
 20
13.16852484809028
 10
12.25013563368056
 20
13.14659288194444
 10
12.31248643663194
 20
13.14659288194444
 10
12.37430826822917
 20
13.14659288194444
 10
12.42716471354167
 20
13.16840277777778
 10
12.47105577256944
 20
13.2120361328125
 10
12.51491970486111
 20
13.25568305121528
 10
12.536865234375
 20
13.30864800347222
 10
12.536865234375
 20
13.3709716796875
 10
12.536865234375
 20
13.3709716796875
 10
12.536865234375
 20
13.88255479600694
 10
12.536865234375
 20
13.88255479600694
 10
12.53685167100694
 20
13.94439019097222
 10
12.51505533854167
 20
13.99724663628472
 10
12.47140842013889
 20
14.04112413194444
 97
        0
 92
        1
 93
        1
 72
     4
 94
        3
 73
     0
 74
     1
 95
       35
 96
       31
 40
0.0
 40
0.0
 40
0.0
 40
0.0
 40
1.0
 40
1.0
 40
1.0
 40
2.0
 40
2.0
 40
2.0
 40
3.0
 40
3.0
 40
3.0
 40
4.0
 40
4.0
 40
4.0
 40
5.0
 40
5.0
 40
5.0
 40
6.0
 40
6.0
 40
6.0
 40
7.0
 40
7.0
 40
7.0
 40
8.0
 40
8.0
 40
8.0
 40
9.0
 40
9.0
 40
9.0
 40
10.0
 40
10.0
 40
10.0
 40
10.0
 10
12.3895263671875
 20
13.37245008680556
 10
12.3895263671875
 20
13.35002983940972
 10
12.38165961371528
 20
13.33095974392361
 10
12.365966796875
 20
13.31523980034722
 10
12.35026041666667
 20
13.29954698350694
 10
12.33119032118056
 20
13.29169379340278
 10
12.30874294704861
 20
13.29169379340278
 10
12.28629557291667
 20
13.29169379340278
 10
12.26710340711806
 20
13.29953342013889
 10
12.25115288628472
 20
13.31523980034722
 10
12.23520236545139
 20
13.33095974392361
 10
12.22722710503472
 20
13.35002983940972
 10
12.22722710503472
 20
13.37245008680556
 10
12.22722710503472
 20
13.37245008680556
 10
12.22722710503472
 20
13.88555230034722
 10
12.22722710503472
 20
13.88555230034722
 10
12.22722710503472
 20
13.90799967447917
 10
12.23520236545139
 20
13.92706976996528
 10
12.25115288628472
 20
13.94277615017361
 10
12.26711697048611
 20
13.95848253038194
 10
12.28629557291667
 20
13.96634928385417
 10
12.30874294704861
 20
13.96634928385417
 10
12.33119032118056
 20
13.96634928385417
 10
12.35026041666667
 20
13.95849609375
 10
12.365966796875
 20
13.94277615017361
 10
12.38165961371528
 20
13.92706976996528
 10
12.3895263671875
 20
13.90799967447917
 10
12.3895263671875
 20
13.88555230034722
 10
12.3895263671875
 20
13.88555230034722
 10
12.3895263671875
 20
13.37245008680556
 10
12.3895263671875
 20
13.37245008680556
 97
        0
 75
     2
 76
     1
 98
        0
  0
ENDBLK
  5
5B
330
58
100
AcDbEntity
  8
0
100
AcDbBlockEnd
  0
BLOCK
  5
6F
330
6D
100
AcDbEntity
  8
0
100
AcDbBlockBegin
  2
block 6
 70
     0
 71
     0
 10
0.0
 20
0.0
 30
0.0
  3
block 6
  1

  0
SPLINE
  5
71
330
6D
100
AcDbEntity
  8
Calque 1
370
     0
100
AcDbSpline
210
0.0
220
0.0
230
1.0
 70
    11
 71
     3
 72
    35
 73
    31
 74
     0
 42
0.0000000001
 43
0.0000000001
 40
0.0
 40
0.0
 40
0.0
 40
0.0
 40
1.0
 40
1.0
 40
1.0
 40
2.0
 40
2.0
 40
2.0
 40
3.0
 40
3.0
 40
3.0
 40
4.0
 40
4.0
 40
4.0
 40
5.0
 40
5.0
 40
5.0
 40
6.0
 40
6.0
 40
6.0
 40
7.0
 40
7.0
 40
7.0
 40
8.0
 40
8.0
 40
8.0
 40
9.0
 40
9.0
 40
9.0
 40
10.0
 40
10.0
 40
10.0
 40
10.0
 10
11.30391438802083
 20
13.01534016927083
 30
0.0
 10
11.30391438802083
 20
13.01534016927083
 30
0.0
 10
11.08102756076389
 20
13.01534016927083
 30
0.0
 10
11.08102756076389
 20
13.01534016927083
 30
0.0
 10
11.08102756076389
 20
13.01534016927083
 30
0.0
 10
11.08102756076389
 20
12.07817925347222
 30
0.0
 10
11.08102756076389
 20
12.07817925347222
 30
0.0
 10
11.08102756076389
 20
12.07817925347222
 30
0.0
 10
11.22238498263889
 20
12.07817925347222
 30
0.0
 10
11.22238498263889
 20
12.07817925347222
 30
0.0
 10
11.22238498263889
 20
12.07817925347222
 30
0.0
 10
11.22238498263889
 20
12.43120659722222
 30
0.0
 10
11.22238498263889
 20
12.43120659722222
 30
0.0
 10
11.22238498263889
 20
12.43120659722222
 30
0.0
 10
11.30391438802083
 20
12.43120659722222
 30
0.0
 10
11.30391438802083
 20
12.43120659722222
 30
0.0
 10
11.36524793836806
 20
12.43120659722222
 30
0.0
 10
11.41746690538194
 20
12.45313856336806
 30
0.0
 10
11.46061197916667
 20
12.49701605902778
 30
0.0
 10
11.50372992621528
 20
12.5408935546875
 30
0.0
 10
11.52529568142361
 20
12.59375
 30
0.0
 10
11.52529568142361
 20
12.65558539496528
 30
0.0
 10
11.52529568142361
 20
12.65558539496528
 30
0.0
 10
11.52529568142361
 20
12.79170735677083
 30
0.0
 10
11.52529568142361
 20
12.79170735677083
 30
0.0
 10
11.52529568142361
 20
12.85603841145833
 30
0.0
 10
11.50634765625
 20
12.90888129340278
 30
0.0
 10
11.46845160590278
 20
12.95027669270833
 30
0.0
 10
11.42757161458333
 20
12.99365234375
 30
0.0
 10
11.37272135416667
 20
13.01534016927083
 30
0.0
 10
11.30391438802083
 20
13.01534016927083
 30
0.0
  0
SPLINE
  5
72
330
6D
100
AcDbEntity
  8
Calque 1
370
     0
100
AcDbSpline
210
0.0
220
0.0
230
1.0
 70
    11
 71
     3
 72
    32
 73
    28
 74
     0
 42
0.0000000001
 43
0.0000000001
 40
0.0
 40
0.0
 40
0.0
 40
0.0
 40
1.0
 40
1.0
 40
1.0
 40
2.0
 40
2.0
 40
2.0
 40
3.0
 40
3.0
 40
3.0
 40
4.0
 40
4.0
 40
4.0
 40
5.0
 40
5.0
 40
5.0
 40
6.0
 40
6.0
 40
6.0
 40
7.0
 40
7.0
 40
7.0
 40
8.0
 40
8.0
 40
8.0
 40
9.0
 40
9.0
 40
9.0
 40
9.0
 10
11.388427734375
 20
12.652587890625
 30
0.0
 10
11.388427734375
 20
12.63015407986111
 30
0.0
 10
11.38056098090278
 20
12.61093478732639
 30
0.0
 10
11.3648681640625
 20
12.59499782986111
 30
0.0
 10
11.34916178385417
 20
12.57903374565972
 30
0.0
 10
11.330078125
 20
12.57105848524306
 30
0.0
 10
11.30764431423611
 20
12.57105848524306
 30
0.0
 10
11.30764431423611
 20
12.57105848524306
 30
0.0
 10
11.22238498263889
 20
12.57105848524306
 30
0.0
 10
11.22238498263889
 20
12.57105848524306
 30
0.0
 10
11.22238498263889
 20
12.57105848524306
 30
0.0
 10
11.22238498263889
 20
12.87099880642361
 30
0.0
 10
11.22238498263889
 20
12.87099880642361
 30
0.0
 10
11.22238498263889
 20
12.87099880642361
 30
0.0
 10
11.30764431423611
 20
12.87099880642361
 30
0.0
 10
11.30764431423611
 20
12.87099880642361
 30
0.0
 10
11.33207194010417
 20
12.87099880642361
 30
0.0
 10
11.35164388020833
 20
12.86351182725694
 30
0.0
 10
11.36636013454861
 20
12.84855143229167
 30
0.0
 10
11.38106282552083
 20
12.83359103732639
 30
0.0
 10
11.388427734375
 20
12.81388346354167
 30
0.0
 10
11.388427734375
 20
12.78946940104167
 30
0.0
 10
11.388427734375
 20
12.78946940104167
 30
0.0
 10
11.388427734375
 20
12.652587890625
 30
0.0
 10
11.388427734375
 20
12.652587890625
 30
0.0
 10
11.388427734375
 20
12.652587890625
 30
0.0
 10
11.388427734375
 20
12.652587890625
 30
0.0
 10
11.388427734375
 20
12.652587890625
 30
0.0
  0
HATCH
  5
73
330
6D
100
AcDbEntity
  8
Calque 1
 62
   250
420
  1907995
100
AcDbHatch
 10
0.0
 20
0.0
 30
0.0
210
0.0
220
0.0
230
1.0
  2
SOLID
 70
     1
 71
     0
 91
        2
 92
        1
 93
        1
 72
     4
 94
        3
 73
     0
 74
     1
 95
       35
 96
       31
 40
0.0
 40
0.0
 40
0.0
 40
0.0
 40
1.0
 40
1.0
 40
1.0
 40
2.0
 40
2.0
 40
2.0
 40
3.0
 40
3.0
 40
3.0
 40
4.0
 40
4.0
 40
4.0
 40
5.0
 40
5.0
 40
5.0
 40
6.0
 40
6.0
 40
6.0
 40
7.0
 40
7.0
 40
7.0
 40
8.0
 40
8.0
 40
8.0
 40
9.0
 40
9.0
 40
9.0
 40
10.0
 40
10.0
 40
10.0
 40
10.0
 10
11.30391438802083
 20
13.01534016927083
 10
11.30391438802083
 20
13.01534016927083
 10
11.08102756076389
 20
13.01534016927083
 10
11.08102756076389
 20
13.01534016927083
 10
11.08102756076389
 20
13.01534016927083
 10
11.08102756076389
 20
12.07817925347222
 10
11.08102756076389
 20
12.07817925347222
 10
11.08102756076389
 20
12.07817925347222
 10
11.22238498263889
 20
12.07817925347222
 10
11.22238498263889
 20
12.07817925347222
 10
11.22238498263889
 20
12.07817925347222
 10
11.22238498263889
 20
12.43120659722222
 10
11.22238498263889
 20
12.43120659722222
 10
11.22238498263889
 20
12.43120659722222
 10
11.30391438802083
 20
12.43120659722222
 10
11.30391438802083
 20
12.43120659722222
 10
11.36524793836806
 20
12.43120659722222
 10
11.41746690538194
 20
12.45313856336806
 10
11.46061197916667
 20
12.49701605902778
 10
11.50372992621528
 20
12.5408935546875
 10
11.52529568142361
 20
12.59375
 10
11.52529568142361
 20
12.65558539496528
 10
11.52529568142361
 20
12.65558539496528
 10
11.52529568142361
 20
12.79170735677083
 10
11.52529568142361
 20
12.79170735677083
 10
11.52529568142361
 20
12.85603841145833
 10
11.50634765625
 20
12.90888129340278
 10
11.46845160590278
 20
12.95027669270833
 10
11.42757161458333
 20
12.99365234375
 10
11.37272135416667
 20
13.01534016927083
 10
11.30391438802083
 20
13.01534016927083
 97
        0
 92
        1
 93
        1
 72
     4
 94
        3
 73
     0
 74
     1
 95
       32
 96
       28
 40
0.0
 40
0.0
 40
0.0
 40
0.0
 40
1.0
 40
1.0
 40
1.0
 40
2.0
 40
2.0
 40
2.0
 40
3.0
 40
3.0
 40
3.0
 40
4.0
 40
4.0
 40
4.0
 40
5.0
 40
5.0
 40
5.0
 40
6.0
 40
6.0
 40
6.0
 40
7.0
 40
7.0
 40
7.0
 40
8.0
 40
8.0
 40
8.0
 40
9.0
 40
9.0
 40
9.0
 40
9.0
 10
11.388427734375
 20
12.652587890625
 10
11.388427734375
 20
12.63015407986111
 10
11.38056098090278
 20
12.61093478732639
 10
11.3648681640625
 20
12.59499782986111
 10
11.34916178385417
 20
12.57903374565972
 10
11.330078125
 20
12.57105848524306
 10
11.30764431423611
 20
12.57105848524306
 10
11.30764431423611
 20
12.57105848524306
 10
11.22238498263889
 20
12.57105848524306
 10
11.22238498263889
 20
12.57105848524306
 10
11.22238498263889
 20
12.57105848524306
 10
11.22238498263889
 20
12.87099880642361
 10
11.22238498263889
 20
12.87099880642361
 10
11.22238498263889
 20
12.87099880642361
 10
11.30764431423611
 20
12.87099880642361
 10
11.30764431423611
 20
12.87099880642361
 10
11.33207194010417
 20
12.87099880642361
 10
11.35164388020833
 20
12.86351182725694
 10
11.36636013454861
 20
12.84855143229167
 10
11.38106282552083
 20
12.83359103732639
 10
11.388427734375
 20
12.81388346354167
 10
11.388427734375
 20
12.78946940104167
 10
11.388427734375
 20
12.78946940104167
 10
11.388427734375
 20
12.652587890625
 10
11.388427734375
 20
12.652587890625
 10
11.388427734375
 20
12.652587890625
 10
11.388427734375
 20
12.652587890625
 10
11.388427734375
 20
12.652587890625
 97
        0
 75
     2
 76
     1
 98
        0
  0
POLYLINE
  5
74
330
6D
100
AcDbEntity
  8
Calque 1
370
     0
100
AcDb2dPolyline
 66
     1
 10
0.0
 20
0.0
 30
0.0
  0
VERTEX
  5
75
330
74
100
AcDbEntity
  8
Calque 1
370
     0
100
AcDbVertex
100
AcDb2dVertex
 10
11.70707194010417
 20
13.01534016927083
 30
0.0
  0
VERTEX
  5
76
330
74
100
AcDbEntity
  8
Calque 1
370
     0
100
AcDbVertex
100
AcDb2dVertex
 10
11.5477294921875
 20
12.07817925347222
 30
0.0
  0
VERTEX
  5
77
330
74
100
AcDbEntity
  8
Calque 1
370
     0
100
AcDbVertex
100
AcDb2dVertex
 10
11.69493272569444
 20
12.07817925347222
 30
0.0
  0
VERTEX
  5
78
330
74
100
AcDbEntity
  8
Calque 1
370
     0
100
AcDbVertex
100
AcDb2dVertex
 10
11.72927517361111
 20
12.2935791015625
 30
0.0
  0
VERTEX
  5
79
330
74
100
AcDbEntity
  8
Calque 1
370
     0
100
AcDbVertex
100
AcDb2dVertex
 10
11.87685818142361
 20
12.2935791015625
 30
0.0
  0
VERTEX
  5
7A
330
74
100
AcDbEntity
  8
Calque 1
370
     0
100
AcDbVertex
100
AcDb2dVertex
 10
11.90992567274306
 20
12.07817925347222
 30
0.0
  0
VERTEX
  5
7B
330
74
100
AcDbEntity
  8
Calque 1
370
     0
100
AcDbVertex
100
AcDb2dVertex
 10
12.05856662326389
 20
12.07817925347222
 30
0.0
  0
VERTEX
  5
7C
330
74
100
AcDbEntity
  8
Calque 1
370
     0
100
AcDbVertex
100
AcDb2dVertex
 10
11.90151638454861
 20
13.01534016927083
 30
0.0
  0
VERTEX
  5
7D
330
74
100
AcDbEntity
  8
Calque 1
370
     0
100
AcDbVertex
100
AcDb2dVertex
 10
11.70707194010417
 20
13.01534016927083
 30
0.0
  0
SEQEND
  5
7E
330
74
100
AcDbEntity
  8
Calque 1
370
     0
  0
POLYLINE
  5
7F
330
6D
100
AcDbEntity
  8
Calque 1
370
     0
100
AcDb2dPolyline
 66
     1
 10
0.0
 20
0.0
 30
0.0
  0
VERTEX
  5
80
330
7F
100
AcDbEntity
  8
Calque 1
370
     0
100
AcDbVertex
100
AcDb2dVertex
 10
11.75118001302083
 20
12.43120659722222
 30
0.0
  0
VERTEX
  5
81
330
7F
100
AcDbEntity
  8
Calque 1
370
     0
100
AcDbVertex
100
AcDb2dVertex
 10
11.80353461371528
 20
12.80067274305556
 30
0.0
  0
VERTEX
  5
82
330
7F
100
AcDbEntity
  8
Calque 1
370
     0
100
AcDbVertex
100
AcDb2dVertex
 10
11.85588921440972
 20
12.43120659722222
 30
0.0
  0
VERTEX
  5
83
330
7F
100
AcDbEntity
  8
Calque 1
370
     0
100
AcDbVertex
100
AcDb2dVertex
 10
11.75118001302083
 20
12.43120659722222
 30
0.0
  0
SEQEND
  5
84
330
7F
100
AcDbEntity
  8
Calque 1
370
     0
  0
HATCH
  5
85
330
6D
100
AcDbEntity
  8
Calque 1
 62
   250
420
  1907995
100
AcDbHatch
 10
0.0
 20
0.0
 30
0.0
210
0.0
220
0.0
230
1.0
  2
SOLID
 70
     1
 71
     0
 91
        2
 92
        1
 93
        8
 72
     1
 10
11.70707194010417
 20
13.01534016927083
 11
11.5477294921875
 21
12.07817925347222
 72
     1
 10
11.5477294921875
 20
12.07817925347222
 11
11.69493272569444
 21
12.07817925347222
 72
     1
 10
11.69493272569444
 20
12.07817925347222
 11
11.72927517361111
 21
12.2935791015625
 72
     1
 10
11.72927517361111
 20
12.2935791015625
 11
11.87685818142361
 21
12.2935791015625
 72
     1
 10
11.87685818142361
 20
12.2935791015625
 11
11.90992567274306
 21
12.07817925347222
 72
     1
 10
11.90992567274306
 20
12.07817925347222
 11
12.05856662326389
 21
12.07817925347222
 72
     1
 10
12.05856662326389
 20
12.07817925347222
 11
11.90151638454861
 21
13.01534016927083
 72
     1
 10
11.90151638454861
 20
13.01534016927083
 11
11.70707194010417
 21
13.01534016927083
 97
        0
 92
        1
 93
        3
 72
     1
 10
11.75118001302083
 20
12.43120659722222
 11
11.80353461371528
 21
12.80067274305556
 72
     1
 10
11.80353461371528
 20
12.80067274305556
 11
11.85588921440972
 21
12.43120659722222
 72
     1
 10
11.85588921440972
 20
12.43120659722222
 11
11.75118001302083
 21
12.43120659722222
 97
        0
 75
     2
 76
     1
 98
        0
  0
POLYLINE
  5
86
330
6D
100
AcDbEntity
  8
Calque 1
370
     0
100
AcDb2dPolyline
 66
     1
 10
0.0
 20
0.0
 30
0.0
  0
VERTEX
  5
87
330
86
100
AcDbEntity
  8
Calque 1
370
     0
100
AcDbVertex
100
AcDb2dVertex
 10
12.17746310763889
 20
13.01534016927083
 30
0.0
  0
VERTEX
  5
88
330
86
100
AcDbEntity
  8
Calque 1
370
     0
100
AcDbVertex
100
AcDb2dVertex
 10
12.31883409288194
 20
13.01534016927083
 30
0.0
  0
VERTEX
  5
89
330
86
100
AcDbEntity
  8
Calque 1
370
     0
100
AcDbVertex
100
AcDb2dVertex
 10
12.31883409288194
 20
12.07817925347222
 30
0.0
  0
VERTEX
  5
8A
330
86
100
AcDbEntity
  8
Calque 1
370
     0
100
AcDbVertex
100
AcDb2dVertex
 10
12.17746310763889
 20
12.07817925347222
 30
0.0
  0
VERTEX
  5
8B
330
86
100
AcDbEntity
  8
Calque 1
370
     0
100
AcDbVertex
100
AcDb2dVertex
 10
12.17746310763889
 20
13.01534016927083
 30
0.0
  0
SEQEND
  5
8C
330
86
100
AcDbEntity
  8
Calque 1
370
     0
  0
HATCH
  5
8D
330
6D
100
AcDbEntity
  8
Calque 1
 62
   250
420
  1907995
100
AcDbHatch
 10
0.0
 20
0.0
 30
0.0
210
0.0
220
0.0
230
1.0
  2
SOLID
 70
     1
 71
     0
 91
        1
 92
        1
 93
        4
 72
     1
 10
12.17746310763889
 20
13.01534016927083
 11
12.31883409288194
 21
13.01534016927083
 72
     1
 10
12.31883409288194
 20
13.01534016927083
 11
12.31883409288194
 21
12.07817925347222
 72
     1
 10
12.31883409288194
 20
12.07817925347222
 11
12.17746310763889
 21
12.07817925347222
 72
     1
 10
12.17746310763889
 20
12.07817925347222
 11
12.17746310763889
 21
13.01534016927083
 97
        0
 75
     2
 76
     1
 98
        0
  0
POLYLINE
  5
8E
330
6D
100
AcDbEntity
  8
Calque 1
370
     0
100
AcDb2dPolyline
 66
     1
 10
0.0
 20
0.0
 30
0.0
  0
VERTEX
  5
8F
330
8E
100
AcDbEntity
  8
Calque 1
370
     0
100
AcDbVertex
100
AcDb2dVertex
 10
12.79151746961806
 20
13.01608615451389
 30
0.0
  0
VERTEX
  5
90
330
8E
100
AcDbEntity
  8
Calque 1
370
     0
100
AcDbVertex
100
AcDb2dVertex
 10
12.79151746961806
 20
12.3857421875
 30
0.0
  0
VERTEX
  5
91
330
8E
100
AcDbEntity
  8
Calque 1
370
     0
100
AcDbVertex
100
AcDb2dVertex
 10
12.60392252604167
 20
13.01608615451389
 30
0.0
  0
VERTEX
  5
92
330
8E
100
AcDbEntity
  8
Calque 1
370
     0
100
AcDbVertex
100
AcDb2dVertex
 10
12.44523111979167
 20
13.01608615451389
 30
0.0
  0
VERTEX
  5
93
330
8E
100
AcDbEntity
  8
Calque 1
370
     0
100
AcDbVertex
100
AcDb2dVertex
 10
12.44523111979167
 20
12.07817925347222
 30
0.0
  0
VERTEX
  5
94
330
8E
100
AcDbEntity
  8
Calque 1
370
     0
100
AcDbVertex
100
AcDb2dVertex
 10
12.58658854166667
 20
12.07817925347222
 30
0.0
  0
VERTEX
  5
95
330
8E
100
AcDbEntity
  8
Calque 1
370
     0
100
AcDbVertex
100
AcDb2dVertex
 10
12.58658854166667
 20
12.67877875434028
 30
0.0
  0
VERTEX
  5
96
330
8E
100
AcDbEntity
  8
Calque 1
370
     0
100
AcDbVertex
100
AcDb2dVertex
 10
12.78103298611111
 20
12.07817925347222
 30
0.0
  0
VERTEX
  5
97
330
8E
100
AcDbEntity
  8
Calque 1
370
     0
100
AcDbVertex
100
AcDb2dVertex
 10
12.93287489149306
 20
12.07817925347222
 30
0.0
  0
VERTEX
  5
98
330
8E
100
AcDbEntity
  8
Calque 1
370
     0
100
AcDbVertex
100
AcDb2dVertex
 10
12.93287489149306
 20
13.01608615451389
 30
0.0
  0
VERTEX
  5
99
330
8E
100
AcDbEntity
  8
Calque 1
370
     0
100
AcDbVertex
100
AcDb2dVertex
 10
12.79151746961806
 20
13.01608615451389
 30
0.0
  0
SEQEND
  5
9A
330
8E
100
AcDbEntity
  8
Calque 1
370
     0
  0
HATCH
  5
9B
330
6D
100
AcDbEntity
  8
Calque 1
 62
   250
420
  1907995
100
AcDbHatch
 10
0.0
 20
0.0
 30
0.0
210
0.0
220
0.0
230
1.0
  2
SOLID
 70
     1
 71
     0
 91
        1
 92
        1
 93
       10
 72
     1
 10
12.79151746961806
 20
13.01608615451389
 11
12.79151746961806
 21
12.3857421875
 72
     1
 10
12.79151746961806
 20
12.3857421875
 11
12.60392252604167
 21
13.01608615451389
 72
     1
 10
12.60392252604167
 20
13.01608615451389
 11
12.44523111979167
 21
13.01608615451389
 72
     1
 10
12.44523111979167
 20
13.01608615451389
 11
12.44523111979167
 21
12.07817925347222
 72
     1
 10
12.44523111979167
 20
12.07817925347222
 11
12.58658854166667
 21
12.07817925347222
 72
     1
 10
12.58658854166667
 20
12.07817925347222
 11
12.58658854166667
 21
12.67877875434028
 72
     1
 10
12.58658854166667
 20
12.67877875434028
 11
12.78103298611111
 21
12.07817925347222
 72
     1
 10
12.78103298611111
 20
12.07817925347222
 11
12.93287489149306
 21
12.07817925347222
 72
     1
 10
12.93287489149306
 20
12.07817925347222
 11
12.93287489149306
 21
13.01608615451389
 72
     1
 10
12.93287489149306
 20
13.01608615451389
 11
12.79151746961806
 21
13.01608615451389
 97
        0
 75
     2
 76
     1
 98
        0
  0
ENDBLK
  5
70
330
6D
100
AcDbEntity
  8
0
100
AcDbBlockEnd
  0
BLOCK
  5
9E
330
9C
100
AcDbEntity
  8
0
100
AcDbBlockBegin
  2
block 7
 70
     0
 71
     0
 10
0.0
 20
0.0
 30
0.0
  3
block 7
  1

  0
POLYLINE
  5
A0
330
9C
100
AcDbEntity
  8
Calque 1
370
     0
100
AcDb2dPolyline
 66
     1
 10
0.0
 20
0.0
 30
0.0
  0
VERTEX
  5
A1
330
A0
100
AcDbEntity
  8
Calque 1
370
     0
100
AcDbVertex
100
AcDb2dVertex
 10
11.82333713107639
 20
11.30612521701389
 30
0.0
  0
VERTEX
  5
A2
330
A0
100
AcDbEntity
  8
Calque 1
370
     0
100
AcDbVertex
100
AcDb2dVertex
 10
11.63572862413194
 20
11.93645562065972
 30
0.0
  0
VERTEX
  5
A3
330
A0
100
AcDbEntity
  8
Calque 1
370
     0
100
AcDbVertex
100
AcDb2dVertex
 10
11.47705078125
 20
11.93645562065972
 30
0.0
  0
VERTEX
  5
A4
330
A0
100
AcDbEntity
  8
Calque 1
370
     0
100
AcDbVertex
100
AcDb2dVertex
 10
11.47705078125
 20
10.99854871961806
 30
0.0
  0
VERTEX
  5
A5
330
A0
100
AcDbEntity
  8
Calque 1
370
     0
100
AcDbVertex
100
AcDb2dVertex
 10
11.618408203125
 20
10.99854871961806
 30
0.0
  0
VERTEX
  5
A6
330
A0
100
AcDbEntity
  8
Calque 1
370
     0
100
AcDbVertex
100
AcDb2dVertex
 10
11.618408203125
 20
11.59913465711806
 30
0.0
  0
VERTEX
  5
A7
330
A0
100
AcDbEntity
  8
Calque 1
370
     0
100
AcDbVertex
100
AcDb2dVertex
 10
11.8128662109375
 20
10.99854871961806
 30
0.0
  0
VERTEX
  5
A8
330
A0
100
AcDbEntity
  8
Calque 1
370
     0
100
AcDbVertex
100
AcDb2dVertex
 10
11.96469455295139
 20
10.99854871961806
 30
0.0
  0
VERTEX
  5
A9
330
A0
100
AcDbEntity
  8
Calque 1
370
     0
100
AcDbVertex
100
AcDb2dVertex
 10
11.96469455295139
 20
11.93645562065972
 30
0.0
  0
VERTEX
  5
AA
330
A0
100
AcDbEntity
  8
Calque 1
370
     0
100
AcDbVertex
100
AcDb2dVertex
 10
11.82333713107639
 20
11.93645562065972
 30
0.0
  0
VERTEX
  5
AB
330
A0
100
AcDbEntity
  8
Calque 1
370
     0
100
AcDbVertex
100
AcDb2dVertex
 10
11.82333713107639
 20
11.30612521701389
 30
0.0
  0
SEQEND
  5
AC
330
A0
100
AcDbEntity
  8
Calque 1
370
     0
  0
HATCH
  5
AD
330
9C
100
AcDbEntity
  8
Calque 1
 62
   250
420
  1907995
100
AcDbHatch
 10
0.0
 20
0.0
 30
0.0
210
0.0
220
0.0
230
1.0
  2
SOLID
 70
     1
 71
     0
 91
        1
 92
        1
 93
       10
 72
     1
 10
11.82333713107639
 20
11.30612521701389
 11
11.63572862413194
 21
11.93645562065972
 72
     1
 10
11.63572862413194
 20
11.93645562065972
 11
11.47705078125
 21
11.93645562065972
 72
     1
 10
11.47705078125
 20
11.93645562065972
 11
11.47705078125
 21
10.99854871961806
 72
     1
 10
11.47705078125
 20
10.99854871961806
 11
11.618408203125
 21
10.99854871961806
 72
     1
 10
11.618408203125
 20
10.99854871961806
 11
11.618408203125
 21
11.59913465711806
 72
     1
 10
11.618408203125
 20
11.59913465711806
 11
11.8128662109375
 21
10.99854871961806
 72
     1
 10
11.8128662109375
 20
10.99854871961806
 11
11.96469455295139
 21
10.99854871961806
 72
     1
 10
11.96469455295139
 20
10.99854871961806
 11
11.96469455295139
 21
11.93645562065972
 72
     1
 10
11.96469455295139
 20
11.93645562065972
 11
11.82333713107639
 21
11.93645562065972
 72
     1
 10
11.82333713107639
 20
11.93645562065972
 11
11.82333713107639
 21
11.30612521701389
 97
        0
 75
     2
 76
     1
 98
        0
  0
SPLINE
  5
AE
330
9C
100
AcDbEntity
  8
Calque 1
370
     0
100
AcDbSpline
210
0.0
220
0.0
230
1.0
 70
    11
 71
     3
 72
    35
 73
    31
 74
     0
 42
0.0000000001
 43
0.0000000001
 40
0.0
 40
0.0
 40
0.0
 40
0.0
 40
1.0
 40
1.0
 40
1.0
 40
2.0
 40
2.0
 40
2.0
 40
3.0
 40
3.0
 40
3.0
 40
4.0
 40
4.0
 40
4.0
 40
5.0
 40
5.0
 40
5.0
 40
6.0
 40
6.0
 40
6.0
 40
7.0
 40
7.0
 40
7.0
 40
8.0
 40
8.0
 40
8.0
 40
9.0
 40
9.0
 40
9.0
 40
10.0
 40
10.0
 40
10.0
 40
10.0
 10
12.47140842013889
 20
11.88186306423611
 30
0.0
 10
12.42778862847222
 20
11.92572699652778
 30
0.0
 10
12.37479654947917
 20
11.94767252604167
 30
0.0
 10
12.31248643663194
 20
11.94767252604167
 30
0.0
 10
12.25113932291667
 20
11.94767252604167
 30
0.0
 10
12.19854058159722
 20
11.92586263020833
 30
0.0
 10
12.15467664930556
 20
11.88222927517361
 30
0.0
 10
12.11078559027778
 20
11.83859592013889
 30
0.0
 10
12.08882649739583
 20
11.78560384114583
 30
0.0
 10
12.08882649739583
 20
11.72330729166667
 30
0.0
 10
12.08882649739583
 20
11.72330729166667
 30
0.0
 10
12.08882649739583
 20
11.21171061197917
 30
0.0
 10
12.08882649739583
 20
11.21171061197917
 30
0.0
 10
12.08882649739583
 20
11.14987521701389
 30
0.0
 10
12.11054144965278
 20
11.09700520833333
 30
0.0
 10
12.15391710069444
 20
11.05315483940972
 30
0.0
 10
12.19730631510417
 20
11.00926378038194
 30
0.0
 10
12.25013563368056
 20
10.98733181423611
 30
0.0
 10
12.31248643663194
 20
10.98733181423611
 30
0.0
 10
12.37430826822917
 20
10.98733181423611
 30
0.0
 10
12.42716471354167
 20
11.00914171006944
 30
0.0
 10
12.47105577256944
 20
11.05277506510417
 30
0.0
 10
12.51491970486111
 20
11.09640842013889
 30
0.0
 10
12.536865234375
 20
11.14938693576389
 30
0.0
 10
12.536865234375
 20
11.21171061197917
 30
0.0
 10
12.536865234375
 20
11.21171061197917
 30
0.0
 10
12.536865234375
 20
11.72330729166667
 30
0.0
 10
12.536865234375
 20
11.72330729166667
 30
0.0
 10
12.53685167100694
 20
11.78511555989583
 30
0.0
 10
12.51505533854167
 20
11.83798556857639
 30
0.0
 10
12.47140842013889
 20
11.88186306423611
 30
0.0
  0
SPLINE
  5
AF
330
9C
100
AcDbEntity
  8
Calque 1
370
     0
100
AcDbSpline
210
0.0
220
0.0
230
1.0
 70
    11
 71
     3
 72
    35
 73
    31
 74
     0
 42
0.0000000001
 43
0.0000000001
 40
0.0
 40
0.0
 40
0.0
 40
0.0
 40
1.0
 40
1.0
 40
1.0
 40
2.0
 40
2.0
 40
2.0
 40
3.0
 40
3.0
 40
3.0
 40
4.0
 40
4.0
 40
4.0
 40
5.0
 40
5.0
 40
5.0
 40
6.0
 40
6.0
 40
6.0
 40
7.0
 40
7.0
 40
7.0
 40
8.0
 40
8.0
 40
8.0
 40
9.0
 40
9.0
 40
9.0
 40
10.0
 40
10.0
 40
10.0
 40
10.0
 10
12.3895263671875
 20
11.21320258246528
 30
0.0
 10
12.3895263671875
 20
11.19076877170139
 30
0.0
 10
12.38165961371528
 20
11.17168511284722
 30
0.0
 10
12.365966796875
 20
11.15597873263889
 30
0.0
 10
12.35026041666667
 20
11.14027235243056
 30
0.0
 10
12.33119032118056
 20
11.13243272569444
 30
0.0
 10
12.30874294704861
 20
11.13243272569444
 30
0.0
 10
12.28629557291667
 20
11.13243272569444
 30
0.0
 10
12.26710340711806
 20
11.14027235243056
 30
0.0
 10
12.25115288628472
 20
11.15597873263889
 30
0.0
 10
12.23520236545139
 20
11.17168511284722
 30
0.0
 10
12.22722710503472
 20
11.19075520833333
 30
0.0
 10
12.22722710503472
 20
11.21320258246528
 30
0.0
 10
12.22722710503472
 20
11.21320258246528
 30
0.0
 10
12.22722710503472
 20
11.72629123263889
 30
0.0
 10
12.22722710503472
 20
11.72629123263889
 30
0.0
 10
12.22722710503472
 20
11.74873860677083
 30
0.0
 10
12.23520236545139
 20
11.76778157552083
 30
0.0
 10
12.25115288628472
 20
11.78350151909722
 30
0.0
 10
12.26711697048611
 20
11.79920789930556
 30
0.0
 10
12.28629557291667
 20
11.80706108940972
 30
0.0
 10
12.30874294704861
 20
11.80706108940972
 30
0.0
 10
12.33119032118056
 20
11.80706108940972
 30
0.0
 10
12.35026041666667
 20
11.79922146267361
 30
0.0
 10
12.365966796875
 20
11.78350151909722
 30
0.0
 10
12.38165961371528
 20
11.76778157552083
 30
0.0
 10
12.3895263671875
 20
11.74873860677083
 30
0.0
 10
12.3895263671875
 20
11.72629123263889
 30
0.0
 10
12.3895263671875
 20
11.72629123263889
 30
0.0
 10
12.3895263671875
 20
11.21320258246528
 30
0.0
 10
12.3895263671875
 20
11.21320258246528
 30
0.0
  0
HATCH
  5
B0
330
9C
100
AcDbEntity
  8
Calque 1
 62
   250
420
  1907995
100
AcDbHatch
 10
0.0
 20
0.0
 30
0.0
210
0.0
220
0.0
230
1.0
  2
SOLID
 70
     1
 71
     0
 91
        2
 92
        1
 93
        1
 72
     4
 94
        3
 73
     0
 74
     1
 95
       35
 96
       31
 40
0.0
 40
0.0
 40
0.0
 40
0.0
 40
1.0
 40
1.0
 40
1.0
 40
2.0
 40
2.0
 40
2.0
 40
3.0
 40
3.0
 40
3.0
 40
4.0
 40
4.0
 40
4.0
 40
5.0
 40
5.0
 40
5.0
 40
6.0
 40
6.0
 40
6.0
 40
7.0
 40
7.0
 40
7.0
 40
8.0
 40
8.0
 40
8.0
 40
9.0
 40
9.0
 40
9.0
 40
10.0
 40
10.0
 40
10.0
 40
10.0
 10
12.47140842013889
 20
11.88186306423611
 10
12.42778862847222
 20
11.92572699652778
 10
12.37479654947917
 20
11.94767252604167
 10
12.31248643663194
 20
11.94767252604167
 10
12.25113932291667
 20
11.94767252604167
 10
12.19854058159722
 20
11.92586263020833
 10
12.15467664930556
 20
11.88222927517361
 10
12.11078559027778
 20
11.83859592013889
 10
12.08882649739583
 20
11.78560384114583
 10
12.08882649739583
 20
11.72330729166667
 10
12.08882649739583
 20
11.72330729166667
 10
12.08882649739583
 20
11.21171061197917
 10
12.08882649739583
 20
11.21171061197917
 10
12.08882649739583
 20
11.14987521701389
 10
12.11054144965278
 20
11.09700520833333
 10
12.15391710069444
 20
11.05315483940972
 10
12.19730631510417
 20
11.00926378038194
 10
12.25013563368056
 20
10.98733181423611
 10
12.31248643663194
 20
10.98733181423611
 10
12.37430826822917
 20
10.98733181423611
 10
12.42716471354167
 20
11.00914171006944
 10
12.47105577256944
 20
11.05277506510417
 10
12.51491970486111
 20
11.09640842013889
 10
12.536865234375
 20
11.14938693576389
 10
12.536865234375
 20
11.21171061197917
 10
12.536865234375
 20
11.21171061197917
 10
12.536865234375
 20
11.72330729166667
 10
12.536865234375
 20
11.72330729166667
 10
12.53685167100694
 20
11.78511555989583
 10
12.51505533854167
 20
11.83798556857639
 10
12.47140842013889
 20
11.88186306423611
 97
        0
 92
        1
 93
        1
 72
     4
 94
        3
 73
     0
 74
     1
 95
       35
 96
       31
 40
0.0
 40
0.0
 40
0.0
 40
0.0
 40
1.0
 40
1.0
 40
1.0
 40
2.0
 40
2.0
 40
2.0
 40
3.0
 40
3.0
 40
3.0
 40
4.0
 40
4.0
 40
4.0
 40
5.0
 40
5.0
 40
5.0
 40
6.0
 40
6.0
 40
6.0
 40
7.0
 40
7.0
 40
7.0
 40
8.0
 40
8.0
 40
8.0
 40
9.0
 40
9.0
 40
9.0
 40
10.0
 40
10.0
 40
10.0
 40
10.0
 10
12.3895263671875
 20
11.21320258246528
 10
12.3895263671875
 20
11.19076877170139
 10
12.38165961371528
 20
11.17168511284722
 10
12.365966796875
 20
11.15597873263889
 10
12.35026041666667
 20
11.14027235243056
 10
12.33119032118056
 20
11.13243272569444
 10
12.30874294704861
 20
11.13243272569444
 10
12.28629557291667
 20
11.13243272569444
 10
12.26710340711806
 20
11.14027235243056
 10
12.25115288628472
 20
11.15597873263889
 10
12.23520236545139
 20
11.17168511284722
 10
12.22722710503472
 20
11.19075520833333
 10
12.22722710503472
 20
11.21320258246528
 10
12.22722710503472
 20
11.21320258246528
 10
12.22722710503472
 20
11.72629123263889
 10
12.22722710503472
 20
11.72629123263889
 10
12.22722710503472
 20
11.74873860677083
 10
12.23520236545139
 20
11.76778157552083
 10
12.25115288628472
 20
11.78350151909722
 10
12.26711697048611
 20
11.79920789930556
 10
12.28629557291667
 20
11.80706108940972
 10
12.30874294704861
 20
11.80706108940972
 10
12.33119032118056
 20
11.80706108940972
 10
12.35026041666667
 20
11.79922146267361
 10
12.365966796875
 20
11.78350151909722
 10
12.38165961371528
 20
11.76778157552083
 10
12.3895263671875
 20
11.74873860677083
 10
12.3895263671875
 20
11.72629123263889
 10
12.3895263671875
 20
11.72629123263889
 10
12.3895263671875
 20
11.21320258246528
 10
12.3895263671875
 20
11.21320258246528
 97
        0
 75
     2
 76
     1
 98
        0
  0
ENDBLK
  5
9F
330
9C
100
AcDbEntity
  8
0
100
AcDbBlockEnd
  0
BLOCK
  5
B3
330
B1
100
AcDbEntity
  8
0
100
AcDbBlockBegin
  2
block 8
 70
     0
 71
     0
 10
0.0
 20
0.0
 30
0.0
  3
block 8
  1

  0
SPLINE
  5
B5
330
B1
100
AcDbEntity
  8
Calque 1
370
     0
100
AcDbSpline
210
0.0
220
0.0
230
1.0
 70
    11
 71
     3
 72
    83
 73
    79
 74
     0
 42
0.0000000001
 43
0.0000000001
 40
0.0
 40
0.0
 40
0.0
 40
0.0
 40
1.0
 40
1.0
 40
1.0
 40
2.0
 40
2.0
 40
2.0
 40
3.0
 40
3.0
 40
3.0
 40
4.0
 40
4.0
 40
4.0
 40
5.0
 40
5.0
 40
5.0
 40
6.0
 40
6.0
 40
6.0
 40
7.0
 40
7.0
 40
7.0
 40
8.0
 40
8.0
 40
8.0
 40
9.0
 40
9.0
 40
9.0
 40
10.0
 40
10.0
 40
10.0
 40
11.0
 40
11.0
 40
11.0
 40
12.0
 40
12.0
 40
12.0
 40
13.0
 40
13.0
 40
13.0
 40
14.0
 40
14.0
 40
14.0
 40
15.0
 40
15.0
 40
15.0
 40
16.0
 40
16.0
 40
16.0
 40
17.0
 40
17.0
 40
17.0
 40
18.0
 40
18.0
 40
18.0
 40
19.0
 40
19.0
 40
19.0
 40
20.0
 40
20.0
 40
20.0
 40
21.0
 40
21.0
 40
21.0
 40
22.0
 40
22.0
 40
22.0
 40
23.0
 40
23.0
 40
23.0
 40
24.0
 40
24.0
 40
24.0
 40
25.0
 40
25.0
 40
25.0
 40
26.0
 40
26.0
 40
26.0
 40
26.0
 10
11.27422417534722
 20
10.86653645833333
 30
0.0
 10
11.21240234375
 20
10.86653645833333
 30
0.0
 10
11.1595458984375
 20
10.84471299913194
 30
0.0
 10
11.11568196614583
 20
10.80109320746528
 30
0.0
 10
11.07177734375
 20
10.75745985243056
 30
0.0
 10
11.04984537760417
 20
10.70448133680556
 30
0.0
 10
11.04984537760417
 20
10.64215766059028
 30
0.0
 10
11.04984537760417
 20
10.64215766059028
 30
0.0
 10
11.04984537760417
 20
10.13057454427083
 30
0.0
 10
11.04984537760417
 20
10.13057454427083
 30
0.0
 10
11.04984537760417
 20
10.06924099392361
 30
0.0
 10
11.0716552734375
 20
10.01662868923611
 30
0.0
 10
11.11528862847222
 20
9.972764756944445
 30
0.0
 10
11.15889485677083
 20
9.928887261284721
 30
0.0
 10
11.21188693576389
 20
9.906941731770832
 30
0.0
 10
11.27421061197917
 20
9.906941731770832
 30
0.0
 10
11.33555772569444
 20
9.906941731770832
 30
0.0
 10
11.38814290364583
 20
9.928643120659721
 30
0.0
 10
11.43203396267361
 20
9.972018771701388
 30
0.0
 10
11.47591145833333
 20
10.01539442274306
 30
0.0
 10
11.49785698784722
 20
10.06826443142361
 30
0.0
 10
11.49785698784722
 20
10.13058810763889
 30
0.0
 10
11.49785698784722
 20
10.13058810763889
 30
0.0
 10
11.49785698784722
 20
10.45818413628472
 30
0.0
 10
11.49785698784722
 20
10.45818413628472
 30
0.0
 10
11.49785698784722
 20
10.45818413628472
 30
0.0
 10
11.27273220486111
 20
10.45818413628472
 30
0.0
 10
11.27273220486111
 20
10.45818413628472
 30
0.0
 10
11.27273220486111
 20
10.45818413628472
 30
0.0
 10
11.27273220486111
 20
10.31609429253472
 30
0.0
 10
11.27273220486111
 20
10.31609429253472
 30
0.0
 10
11.27273220486111
 20
10.31609429253472
 30
0.0
 10
11.35126410590278
 20
10.31609429253472
 30
0.0
 10
11.35126410590278
 20
10.31609429253472
 30
0.0
 10
11.35126410590278
 20
10.31609429253472
 30
0.0
 10
11.35126410590278
 20
10.13187662760417
 30
0.0
 10
11.35126410590278
 20
10.13187662760417
 30
0.0
 10
11.35126410590278
 20
10.1094970703125
 30
0.0
 10
11.34327528211806
 20
10.09048122829861
 30
0.0
 10
11.32732476128472
 20
10.07481553819444
 30
0.0
 10
11.31136067708333
 20
10.05916341145833
 30
0.0
 10
11.29218207465278
 20
10.05132378472222
 30
0.0
 10
11.26974826388889
 20
10.05132378472222
 30
0.0
 10
11.247314453125
 20
10.05132378472222
 30
0.0
 10
11.22823079427083
 20
10.05917697482639
 30
0.0
 10
11.2125244140625
 20
10.07488335503472
 30
0.0
 10
11.19683159722222
 20
10.090576171875
 30
0.0
 10
11.18896484375
 20
10.10965983072917
 30
0.0
 10
11.18896484375
 20
10.13209364149306
 30
0.0
 10
11.18896484375
 20
10.13209364149306
 30
0.0
 10
11.18896484375
 20
10.64518229166667
 30
0.0
 10
11.18896484375
 20
10.64518229166667
 30
0.0
 10
11.18896484375
 20
10.6676025390625
 30
0.0
 10
11.19683159722222
 20
10.68679470486111
 30
0.0
 10
11.2125244140625
 20
10.7027587890625
 30
0.0
 10
11.22823079427083
 20
10.71870930989583
 30
0.0
 10
11.247314453125
 20
10.72669813368056
 30
0.0
 10
11.26974826388889
 20
10.72669813368056
 30
0.0
 10
11.29218207465278
 20
10.72669813368056
 30
0.0
 10
11.31137424045139
 20
10.71872287326389
 30
0.0
 10
11.32732476128472
 20
10.7027587890625
 30
0.0
 10
11.34327528211806
 20
10.68679470486111
 30
0.0
 10
11.35126410590278
 20
10.6676025390625
 30
0.0
 10
11.35126410590278
 20
10.64518229166667
 30
0.0
 10
11.35126410590278
 20
10.64518229166667
 30
0.0
 10
11.35126410590278
 20
10.53523763020833
 30
0.0
 10
11.35126410590278
 20
10.53523763020833
 30
0.0
 10
11.35126410590278
 20
10.53523763020833
 30
0.0
 10
11.49785698784722
 20
10.53523763020833
 30
0.0
 10
11.49785698784722
 20
10.53523763020833
 30
0.0
 10
11.49785698784722
 20
10.53523763020833
 30
0.0
 10
11.49785698784722
 20
10.64217122395833
 30
0.0
 10
11.49785698784722
 20
10.64217122395833
 30
0.0
 10
11.49785698784722
 20
10.70400661892361
 30
0.0
 10
11.47616916232639
 20
10.75686306423611
 30
0.0
 10
11.43279351128472
 20
10.80074055989583
 30
0.0
 10
11.38941786024306
 20
10.84459092881944
 30
0.0
 10
11.3365478515625
 20
10.86653645833333
 30
0.0
 10
11.27422417534722
 20
10.86653645833333
 30
0.0
  0
HATCH
  5
B6
330
B1
100
AcDbEntity
  8
Calque 1
 62
   250
420
  1907995
100
AcDbHatch
 10
0.0
 20
0.0
 30
0.0
210
0.0
220
0.0
230
1.0
  2
SOLID
 70
     1
 71
     0
 91
        1
 92
        1
 93
        1
 72
     4
 94
        3
 73
     0
 74
     1
 95
       83
 96
       79
 40
0.0
 40
0.0
 40
0.0
 40
0.0
 40
1.0
 40
1.0
 40
1.0
 40
2.0
 40
2.0
 40
2.0
 40
3.0
 40
3.0
 40
3.0
 40
4.0
 40
4.0
 40
4.0
 40
5.0
 40
5.0
 40
5.0
 40
6.0
 40
6.0
 40
6.0
 40
7.0
 40
7.0
 40
7.0
 40
8.0
 40
8.0
 40
8.0
 40
9.0
 40
9.0
 40
9.0
 40
10.0
 40
10.0
 40
10.0
 40
11.0
 40
11.0
 40
11.0
 40
12.0
 40
12.0
 40
12.0
 40
13.0
 40
13.0
 40
13.0
 40
14.0
 40
14.0
 40
14.0
 40
15.0
 40
15.0
 40
15.0
 40
16.0
 40
16.0
 40
16.0
 40
17.0
 40
17.0
 40
17.0
 40
18.0
 40
18.0
 40
18.0
 40
19.0
 40
19.0
 40
19.0
 40
20.0
 40
20.0
 40
20.0
 40
21.0
 40
21.0
 40
21.0
 40
22.0
 40
22.0
 40
22.0
 40
23.0
 40
23.0
 40
23.0
 40
24.0
 40
24.0
 40
24.0
 40
25.0
 40
25.0
 40
25.0
 40
26.0
 40
26.0
 40
26.0
 40
26.0
 10
11.27422417534722
 20
10.86653645833333
 10
11.21240234375
 20
10.86653645833333
 10
11.1595458984375
 20
10.84471299913194
 10
11.11568196614583
 20
10.80109320746528
 10
11.07177734375
 20
10.75745985243056
 10
11.04984537760417
 20
10.70448133680556
 10
11.04984537760417
 20
10.64215766059028
 10
11.04984537760417
 20
10.64215766059028
 10
11.04984537760417
 20
10.13057454427083
 10
11.04984537760417
 20
10.13057454427083
 10
11.04984537760417
 20
10.06924099392361
 10
11.0716552734375
 20
10.01662868923611
 10
11.11528862847222
 20
9.972764756944445
 10
11.15889485677083
 20
9.928887261284721
 10
11.21188693576389
 20
9.906941731770832
 10
11.27421061197917
 20
9.906941731770832
 10
11.33555772569444
 20
9.906941731770832
 10
11.38814290364583
 20
9.928643120659721
 10
11.43203396267361
 20
9.972018771701388
 10
11.47591145833333
 20
10.01539442274306
 10
11.49785698784722
 20
10.06826443142361
 10
11.49785698784722
 20
10.13058810763889
 10
11.49785698784722
 20
10.13058810763889
 10
11.49785698784722
 20
10.45818413628472
 10
11.49785698784722
 20
10.45818413628472
 10
11.49785698784722
 20
10.45818413628472
 10
11.27273220486111
 20
10.45818413628472
 10
11.27273220486111
 20
10.45818413628472
 10
11.27273220486111
 20
10.45818413628472
 10
11.27273220486111
 20
10.31609429253472
 10
11.27273220486111
 20
10.31609429253472
 10
11.27273220486111
 20
10.31609429253472
 10
11.35126410590278
 20
10.31609429253472
 10
11.35126410590278
 20
10.31609429253472
 10
11.35126410590278
 20
10.31609429253472
 10
11.35126410590278
 20
10.13187662760417
 10
11.35126410590278
 20
10.13187662760417
 10
11.35126410590278
 20
10.1094970703125
 10
11.34327528211806
 20
10.09048122829861
 10
11.32732476128472
 20
10.07481553819444
 10
11.31136067708333
 20
10.05916341145833
 10
11.29218207465278
 20
10.05132378472222
 10
11.26974826388889
 20
10.05132378472222
 10
11.247314453125
 20
10.05132378472222
 10
11.22823079427083
 20
10.05917697482639
 10
11.2125244140625
 20
10.07488335503472
 10
11.19683159722222
 20
10.090576171875
 10
11.18896484375
 20
10.10965983072917
 10
11.18896484375
 20
10.13209364149306
 10
11.18896484375
 20
10.13209364149306
 10
11.18896484375
 20
10.64518229166667
 10
11.18896484375
 20
10.64518229166667
 10
11.18896484375
 20
10.6676025390625
 10
11.19683159722222
 20
10.68679470486111
 10
11.2125244140625
 20
10.7027587890625
 10
11.22823079427083
 20
10.71870930989583
 10
11.247314453125
 20
10.72669813368056
 10
11.26974826388889
 20
10.72669813368056
 10
11.29218207465278
 20
10.72669813368056
 10
11.31137424045139
 20
10.71872287326389
 10
11.32732476128472
 20
10.7027587890625
 10
11.34327528211806
 20
10.68679470486111
 10
11.35126410590278
 20
10.6676025390625
 10
11.35126410590278
 20
10.64518229166667
 10
11.35126410590278
 20
10.64518229166667
 10
11.35126410590278
 20
10.53523763020833
 10
11.35126410590278
 20
10.53523763020833
 10
11.35126410590278
 20
10.53523763020833
 10
11.49785698784722
 20
10.53523763020833
 10
11.49785698784722
 20
10.53523763020833
 10
11.49785698784722
 20
10.53523763020833
 10
11.49785698784722
 20
10.64217122395833
 10
11.49785698784722
 20
10.64217122395833
 10
11.49785698784722
 20
10.70400661892361
 10
11.47616916232639
 20
10.75686306423611
 10
11.43279351128472
 20
10.80074055989583
 10
11.38941786024306
 20
10.84459092881944
 10
11.3365478515625
 20
10.86653645833333
 10
11.27422417534722
 20
10.86653645833333
 97
        0
 75
     2
 76
     1
 98
        0
  0
POLYLINE
  5
B7
330
B1
100
AcDbEntity
  8
Calque 1
370
     0
100
AcDb2dPolyline
 66
     1
 10
0.0
 20
0.0
 30
0.0
  0
VERTEX
  5
B8
330
B7
100
AcDbEntity
  8
Calque 1
370
     0
100
AcDbVertex
100
AcDb2dVertex
 10
11.73821343315972
 20
10.85606553819444
 30
0.0
  0
VERTEX
  5
B9
330
B7
100
AcDbEntity
  8
Calque 1
370
     0
100
AcDbVertex
100
AcDb2dVertex
 10
11.57889811197917
 20
9.918904622395832
 30
0.0
  0
VERTEX
  5
BA
330
B7
100
AcDbEntity
  8
Calque 1
370
     0
100
AcDbVertex
100
AcDb2dVertex
 10
11.72608778211806
 20
9.918904622395832
 30
0.0
  0
VERTEX
  5
BB
330
B7
100
AcDbEntity
  8
Calque 1
370
     0
100
AcDbVertex
100
AcDb2dVertex
 10
11.76044379340278
 20
10.13431803385417
 30
0.0
  0
VERTEX
  5
BC
330
B7
100
AcDbEntity
  8
Calque 1
370
     0
100
AcDbVertex
100
AcDb2dVertex
 10
11.90804036458333
 20
10.13431803385417
 30
0.0
  0
VERTEX
  5
BD
330
B7
100
AcDbEntity
  8
Calque 1
370
     0
100
AcDbVertex
100
AcDb2dVertex
 10
11.94110785590278
 20
9.918904622395832
 30
0.0
  0
VERTEX
  5
BE
330
B7
100
AcDbEntity
  8
Calque 1
370
     0
100
AcDbVertex
100
AcDb2dVertex
 10
12.08973524305556
 20
9.918904622395832
 30
0.0
  0
VERTEX
  5
BF
330
B7
100
AcDbEntity
  8
Calque 1
370
     0
100
AcDbVertex
100
AcDb2dVertex
 10
11.93267144097222
 20
10.85606553819444
 30
0.0
  0
VERTEX
  5
C0
330
B7
100
AcDbEntity
  8
Calque 1
370
     0
100
AcDbVertex
100
AcDb2dVertex
 10
11.73821343315972
 20
10.85606553819444
 30
0.0
  0
VERTEX
  5
C1
330
B7
100
AcDbEntity
  8
Calque 1
370
     0
100
AcDbVertex
100
AcDb2dVertex
 10
11.73821343315972
 20
10.85606553819444
 30
0.0
  0
SEQEND
  5
C2
330
B7
100
AcDbEntity
  8
Calque 1
370
     0
  0
POLYLINE
  5
C3
330
B1
100
AcDbEntity
  8
Calque 1
370
     0
100
AcDb2dPolyline
 66
     1
 10
0.0
 20
0.0
 30
0.0
  0
VERTEX
  5
C4
330
C3
100
AcDbEntity
  8
Calque 1
370
     0
100
AcDbVertex
100
AcDb2dVertex
 10
11.78236219618056
 20
10.27194552951389
 30
0.0
  0
VERTEX
  5
C5
330
C3
100
AcDbEntity
  8
Calque 1
370
     0
100
AcDbVertex
100
AcDb2dVertex
 10
11.834716796875
 20
10.64141167534722
 30
0.0
  0
VERTEX
  5
C6
330
C3
100
AcDbEntity
  8
Calque 1
370
     0
100
AcDbVertex
100
AcDb2dVertex
 10
11.88707139756944
 20
10.27194552951389
 30
0.0
  0
VERTEX
  5
C7
330
C3
100
AcDbEntity
  8
Calque 1
370
     0
100
AcDbVertex
100
AcDb2dVertex
 10
11.78236219618056
 20
10.27194552951389
 30
0.0
  0
SEQEND
  5
C8
330
C3
100
AcDbEntity
  8
Calque 1
370
     0
  0
HATCH
  5
C9
330
B1
100
AcDbEntity
  8
Calque 1
 62
   250
420
  1907995
100
AcDbHatch
 10
0.0
 20
0.0
 30
0.0
210
0.0
220
0.0
230
1.0
  2
SOLID
 70
     1
 71
     0
 91
        2
 92
        1
 93
        8
 72
     1
 10
11.73821343315972
 20
10.85606553819444
 11
11.57889811197917
 21
9.918904622395832
 72
     1
 10
11.57889811197917
 20
9.918904622395832
 11
11.72608778211806
 21
9.918904622395832
 72
     1
 10
11.72608778211806
 20
9.918904622395832
 11
11.76044379340278
 21
10.13431803385417
 72
     1
 10
11.76044379340278
 20
10.13431803385417
 11
11.90804036458333
 21
10.13431803385417
 72
     1
 10
11.90804036458333
 20
10.13431803385417
 11
11.94110785590278
 21
9.918904622395832
 72
     1
 10
11.94110785590278
 20
9.918904622395832
 11
12.08973524305556
 21
9.918904622395832
 72
     1
 10
12.08973524305556
 20
9.918904622395832
 11
11.93267144097222
 21
10.85606553819444
 72
     1
 10
11.93267144097222
 20
10.85606553819444
 11
11.73821343315972
 21
10.85606553819444
 97
        0
 92
        1
 93
        3
 72
     1
 10
11.78236219618056
 20
10.27194552951389
 11
11.834716796875
 21
10.64141167534722
 72
     1
 10
11.834716796875
 20
10.64141167534722
 11
11.88707139756944
 21
10.27194552951389
 72
     1
 10
11.88707139756944
 20
10.27194552951389
 11
11.78236219618056
 21
10.27194552951389
 97
        0
 75
     2
 76
     1
 98
        0
  0
POLYLINE
  5
CA
330
B1
100
AcDbEntity
  8
Calque 1
370
     0
100
AcDb2dPolyline
 66
     1
 10
0.0
 20
0.0
 30
0.0
  0
VERTEX
  5
CB
330
CA
100
AcDbEntity
  8
Calque 1
370
     0
100
AcDbVertex
100
AcDb2dVertex
 10
12.20864529079861
 20
10.85606553819444
 30
0.0
  0
VERTEX
  5
CC
330
CA
100
AcDbEntity
  8
Calque 1
370
     0
100
AcDbVertex
100
AcDb2dVertex
 10
12.35001627604167
 20
10.85606553819444
 30
0.0
  0
VERTEX
  5
CD
330
CA
100
AcDbEntity
  8
Calque 1
370
     0
100
AcDbVertex
100
AcDb2dVertex
 10
12.35001627604167
 20
9.918904622395832
 30
0.0
  0
VERTEX
  5
CE
330
CA
100
AcDbEntity
  8
Calque 1
370
     0
100
AcDbVertex
100
AcDb2dVertex
 10
12.20864529079861
 20
9.918904622395832
 30
0.0
  0
VERTEX
  5
CF
330
CA
100
AcDbEntity
  8
Calque 1
370
     0
100
AcDbVertex
100
AcDb2dVertex
 10
12.20864529079861
 20
10.85606553819444
 30
0.0
  0
SEQEND
  5
D0
330
CA
100
AcDbEntity
  8
Calque 1
370
     0
  0
HATCH
  5
D1
330
B1
100
AcDbEntity
  8
Calque 1
 62
   250
420
  1907995
100
AcDbHatch
 10
0.0
 20
0.0
 30
0.0
210
0.0
220
0.0
230
1.0
  2
SOLID
 70
     1
 71
     0
 91
        1
 92
        1
 93
        4
 72
     1
 10
12.20864529079861
 20
10.85606553819444
 11
12.35001627604167
 21
10.85606553819444
 72
     1
 10
12.35001627604167
 20
10.85606553819444
 11
12.35001627604167
 21
9.918904622395832
 72
     1
 10
12.35001627604167
 20
9.918904622395832
 11
12.20864529079861
 21
9.918904622395832
 72
     1
 10
12.20864529079861
 20
9.918904622395832
 11
12.20864529079861
 21
10.85606553819444
 97
        0
 75
     2
 76
     1
 98
        0
  0
POLYLINE
  5
D2
330
B1
100
AcDbEntity
  8
Calque 1
370
     0
100
AcDb2dPolyline
 66
     1
 10
0.0
 20
0.0
 30
0.0
  0
VERTEX
  5
D3
330
D2
100
AcDbEntity
  8
Calque 1
370
     0
100
AcDbVertex
100
AcDb2dVertex
 10
12.82269965277778
 20
10.8568115234375
 30
0.0
  0
VERTEX
  5
D4
330
D2
100
AcDbEntity
  8
Calque 1
370
     0
100
AcDbVertex
100
AcDb2dVertex
 10
12.82269965277778
 20
10.22648111979167
 30
0.0
  0
VERTEX
  5
D5
330
D2
100
AcDbEntity
  8
Calque 1
370
     0
100
AcDbVertex
100
AcDb2dVertex
 10
12.63511827256944
 20
10.8568115234375
 30
0.0
  0
VERTEX
  5
D6
330
D2
100
AcDbEntity
  8
Calque 1
370
     0
100
AcDbVertex
100
AcDb2dVertex
 10
12.47641330295139
 20
10.8568115234375
 30
0.0
  0
VERTEX
  5
D7
330
D2
100
AcDbEntity
  8
Calque 1
370
     0
100
AcDbVertex
100
AcDb2dVertex
 10
12.47641330295139
 20
9.918918185763888
 30
0.0
  0
VERTEX
  5
D8
330
D2
100
AcDbEntity
  8
Calque 1
370
     0
100
AcDbVertex
100
AcDb2dVertex
 10
12.61777072482639
 20
9.918918185763888
 30
0.0
  0
VERTEX
  5
D9
330
D2
100
AcDbEntity
  8
Calque 1
370
     0
100
AcDbVertex
100
AcDb2dVertex
 10
12.61777072482639
 20
10.51949055989583
 30
0.0
  0
VERTEX
  5
DA
330
D2
100
AcDbEntity
  8
Calque 1
370
     0
100
AcDbVertex
100
AcDb2dVertex
 10
12.81222873263889
 20
9.918918185763888
 30
0.0
  0
VERTEX
  5
DB
330
D2
100
AcDbEntity
  8
Calque 1
370
     0
100
AcDbVertex
100
AcDb2dVertex
 10
12.96407063802083
 20
9.918918185763888
 30
0.0
  0
VERTEX
  5
DC
330
D2
100
AcDbEntity
  8
Calque 1
370
     0
100
AcDbVertex
100
AcDb2dVertex
 10
12.96407063802083
 20
10.8568115234375
 30
0.0
  0
VERTEX
  5
DD
330
D2
100
AcDbEntity
  8
Calque 1
370
     0
100
AcDbVertex
100
AcDb2dVertex
 10
12.82269965277778
 20
10.8568115234375
 30
0.0
  0
SEQEND
  5
DE
330
D2
100
AcDbEntity
  8
Calque 1
370
     0
  0
HATCH
  5
DF
330
B1
100
AcDbEntity
  8
Calque 1
 62
   250
420
  1907995
100
AcDbHatch
 10
0.0
 20
0.0
 30
0.0
210
0.0
220
0.0
230
1.0
  2
SOLID
 70
     1
 71
     0
 91
        1
 92
        1
 93
       10
 72
     1
 10
12.82269965277778
 20
10.8568115234375
 11
12.82269965277778
 21
10.22648111979167
 72
     1
 10
12.82269965277778
 20
10.22648111979167
 11
12.63511827256944
 21
10.8568115234375
 72
     1
 10
12.63511827256944
 20
10.8568115234375
 11
12.47641330295139
 21
10.8568115234375
 72
     1
 10
12.47641330295139
 20
10.8568115234375
 11
12.47641330295139
 21
9.918918185763888
 72
     1
 10
12.47641330295139
 20
9.918918185763888
 11
12.61777072482639
 21
9.918918185763888
 72
     1
 10
12.61777072482639
 20
9.918918185763888
 11
12.61777072482639
 21
10.51949055989583
 72
     1
 10
12.61777072482639
 20
10.51949055989583
 11
12.81222873263889
 21
9.918918185763888
 72
     1
 10
12.81222873263889
 20
9.918918185763888
 11
12.96407063802083
 21
9.918918185763888
 72
     1
 10
12.96407063802083
 20
9.918918185763888
 11
12.96407063802083
 21
10.8568115234375
 72
     1
 10
12.96407063802083
 20
10.8568115234375
 11
12.82269965277778
 21
10.8568115234375
 97
        0
 75
     2
 76
     1
 98
        0
  0
ENDBLK
  5
B4
330
B1
100
AcDbEntity
  8
0
100
AcDbBlockEnd
  0
ENDSEC
  0
SECTION
  2
ENTITIES
  0
INSERT
  5
3D
330
1F
100
AcDbEntity
  8
Calque 1
100
AcDbBlockReference
  2
block 2
 10
0.0
 20
0.0
 30
0.0
  0
ENDSEC
  0
SECTION
  2
OBJECTS
  0
DICTIONARY
  5
C
330
0
100
AcDbDictionary
281
     1
  3
ACAD_GROUP
350
D
  3
ACAD_LAYOUT
350
1A
  3
ACAD_MLINESTYLE
350
17
  3
ACAD_PLOTSETTINGS
350
19
  3
ACAD_PLOTSTYLENAME
350
E
  3
ACAD_TABLESTYLE
350
E0
  3
ACAD_VISUALSTYLE
350
2A
  0
DICTIONARY
  5
D
102
{ACAD_REACTORS
330
C
102
}
330
C
100
AcDbDictionary
281
     1
  0
DICTIONARY
  5
1A
102
{ACAD_REACTORS
330
C
102
}
330
C
100
AcDbDictionary
281
     1
  3
Layout1
350
1E
  3
Layout2
350
26
  3
Model
350
22
  0
DICTIONARY
  5
17
102
{ACAD_REACTORS
330
C
102
}
330
C
100
AcDbDictionary
281
     1
  3
Standard
350
18
  0
DICTIONARY
  5
19
102
{ACAD_REACTORS
330
C
102
}
330
C
100
AcDbDictionary
281
     1
  0
ACDBDICTIONARYWDFLT
  5
E
102
{ACAD_REACTORS
330
C
102
}
330
C
100
AcDbDictionary
281
     1
  3
Normal
350
F
100
AcDbDictionaryWithDefault
340
F
  0
DICTIONARY
  5
E0
102
{ACAD_REACTORS
330
C
102
}
330
C
100
AcDbDictionary
281
     1
  0
DICTIONARY
  5
2A
102
{ACAD_REACTORS
330
C
102
}
330
C
100
AcDbDictionary
281
     1
  3
2dWireframe
350
2F
  3
3D Hidden
350
31
  3
3dWireframe
350
30
  3
Basic
350
32
  3
Brighten
350
36
  3
ColorChange
350
3A
  3
Conceptual
350
34
  3
Dim
350
35
  3
Facepattern
350
39
  3
Flat
350
2B
  3
FlatWithEdges
350
2C
  3
Gouraud
350
2D
  3
GouraudWithEdges
350
2E
  3
Linepattern
350
38
  3
Realistic
350
33
  3
Thicken
350
37
  0
LAYOUT
  5
1E
102
{ACAD_REACTORS
330
1A
102
}
330
1A
100
AcDbPlotSettings
  1

  2
none_device
  4

  6

 40
0.0
 41
0.0
 42
0.0
 43
0.0
 44
0.0
 45
0.0
 46
0.0
 47
0.0
 48
0.0
 49
0.0
140
0.0
141
0.0
142
1.0
143
1.0
 70
   688
 72
     0
 73
     0
 74
     5
  7

 75
    16
 76
     0
 77
     2
 78
   300
147
1.0
148
0.0
149
0.0
100
AcDbLayout
  1
Layout1
 70
     1
 71
     1
 10
0.0
 20
0.0
 11
12.0
 21
9.0
 12
0.0
 22
0.0
 32
0.0
 14
1.000000000000000E+20
 24
1.000000000000000E+20
 34
1.000000000000000E+20
 15
-1.000000000000000E+20
 25
-1.000000000000000E+20
 35
-1.000000000000000E+20
146
0.0
 13
0.0
 23
0.0
 33
0.0
 16
1.0
 26
0.0
 36
0.0
 17
0.0
 27
1.0
 37
0.0
 76
     0
330
1B
  0
LAYOUT
  5
26
102
{ACAD_REACTORS
330
1A
102
}
330
1A
100
AcDbPlotSettings
  1

  2
none_device
  4

  6

 40
0.0
 41
0.0
 42
0.0
 43
0.0
 44
0.0
 45
0.0
 46
0.0
 47
0.0
 48
0.0
 49
0.0
140
0.0
141
0.0
142
1.0
143
1.0
 70
   688
 72
     0
 73
     0
 74
     5
  7

 75
    16
 76
     0
 77
     2
 78
   300
147
1.0
148
0.0
149
0.0
100
AcDbLayout
  1
Layout2
 70
     1
 71
     2
 10
0.0
 20
0.0
 11
0.0
 21
0.0
 12
0.0
 22
0.0
 32
0.0
 14
0.0
 24
0.0
 34
0.0
 15
0.0
 25
0.0
 35
0.0
146
0.0
 13
0.0
 23
0.0
 33
0.0
 16
1.0
 26
0.0
 36
0.0
 17
0.0
 27
1.0
 37
0.0
 76
     0
330
23
  0
LAYOUT
  5
22
102
{ACAD_REACTORS
330
1A
102
}
330
1A
100
AcDbPlotSettings
  1

  2
none_device
  4

  6

 40
0.0
 41
0.0
 42
0.0
 43
0.0
 44
0.0
 45
0.0
 46
0.0
 47
0.0
 48
0.0
 49
0.0
140
0.0
141
0.0
142
1.0
143
1.0
 70
  1712
 72
     0
 73
     0
 74
     0
  7

 75
     0
 76
     0
 77
     2
 78
   300
147
1.0
148
0.0
149
0.0
100
AcDbLayout
  1
Model
 70
     1
 71
     0
 10
0.0
 20
0.0
 11
12.0
 21
9.0
 12
0.0
 22
0.0
 32
0.0
 14
1.000000000000000E+20
 24
1.000000000000000E+20
 34
1.000000000000000E+20
 15
-1.000000000000000E+20
 25
-1.000000000000000E+20
 35
-1.000000000000000E+20
146
0.0
 13
0.0
 23
0.0
 33
0.0
 16
1.0
 26
0.0
 36
0.0
 17
0.0
 27
1.0
 37
0.0
 76
     0
330
1F
331
29
  0
MLINESTYLE
  5
18
102
{ACAD_REACTORS
330
17
102
}
330
17
100
AcDbMlineStyle
  2
Standard
 70
     0
  3

 62
   256
 51
90.0
 52
90.0
 71
     2
 49
0.5
 62
   256
  6
BYLAYER
 49
-0.5
 62
   256
  6
BYLAYER
  0
ACDBPLACEHOLDER
  5
F
102
{ACAD_REACTORS
330
E
102
}
330
E
  0
VISUALSTYLE
  5
2F
102
{ACAD_REACTORS
330
2A
102
}
330
2A
100
AcDbVisualStyle
  2
2dWireframe
 70
     4
 71
     0
 72
     2
 73
     0
 90
        0
 40
-0.6
 41
-30.0
 62
     5
 63
     7
421
 16777215
 74
     1
 91
        4
 64
     7
 65
   257
 75
     1
175
     1
 42
1.0
 92
        0
 66
   257
 43
1.0
 76
     1
 77
     6
 78
     2
 67
     7
 79
     5
170
     0
171
     0
290
     0
174
     0
 93
        1
 44
0.0
173
     0
291
     0
 45
0.0
1001
ACAD
1000
AcDbSavedByObjectVersion
1070
     0
  0
VISUALSTYLE
  5
31
102
{ACAD_REACTORS
330
2A
102
}
330
2A
100
AcDbVisualStyle
  2
3D Hidden
 70
     6
 71
     1
 72
     2
 73
     2
 90
        0
 40
-0.6
 41
-30.0
 62
     5
 63
     7
421
 16777215
 74
     2
 91
        2
 64
     7
 65
   257
 75
     2
175
     1
 42
40.0
 92
        0
 66
   257
 43
1.0
 76
     1
 77
     6
 78
     2
 67
     7
 79
     3
170
     0
171
     0
290
     0
174
     0
 93
        1
 44
0.0
173
     0
291
     0
 45
0.0
1001
ACAD
1000
AcDbSavedByObjectVersion
1070
     0
  0
VISUALSTYLE
  5
30
102
{ACAD_REACTORS
330
2A
102
}
330
2A
100
AcDbVisualStyle
  2
3dWireframe
 70
     5
 71
     0
 72
     2
 73
     0
 90
        0
 40
-0.6
 41
-30.0
 62
     5
 63
     7
421
 16777215
 74
     1
 91
        4
 64
     7
 65
   257
 75
     1
175
     1
 42
1.0
 92
        0
 66
   257
 43
1.0
 76
     1
 77
     6
 78
     2
 67
     7
 79
     5
170
     0
171
     0
290
     0
174
     0
 93
        1
 44
0.0
173
     0
291
     0
 45
0.0
1001
ACAD
1000
AcDbSavedByObjectVersion
1070
     0
  0
VISUALSTYLE
  5
32
102
{ACAD_REACTORS
330
2A
102
}
330
2A
100
AcDbVisualStyle
  2
Basic
 70
     7
 71
     1
 72
     0
 73
     1
 90
        0
 40
-0.6
 41
-30.0
 62
     5
 63
     7
421
 16777215
 74
     0
 91
        4
 64
     7
 65
   257
 75
     1
175
     1
 42
1.0
 92
        8
 66
     7
 43
1.0
 76
     1
 77
     6
 78
     2
 67
     7
 79
     5
170
     0
171
     0
290
     0
174
     0
 93
        1
 44
0.0
173
     0
291
     1
 45
0.0
1001
ACAD
1000
AcDbSavedByObjectVersion
1070
     0
  0
VISUALSTYLE
  5
36
102
{ACAD_REACTORS
330
2A
102
}
330
2A
100
AcDbVisualStyle
  2
Brighten
 70
    12
 71
     2
 72
     2
 73
     0
 90
        0
 40
-0.6
 41
-30.0
 62
     5
 63
     7
421
 16777215
 74
     1
 91
        4
 64
     7
 65
   257
 75
     1
175
     1
 42
1.0
 92
        8
 66
     7
 43
1.0
 76
     1
 77
     6
 78
     2
 67
     7
 79
     5
170
     0
171
     0
290
     0
174
     0
 93
        1
 44
50.0
173
     0
291
     1
 45
0.0
1001
ACAD
1000
AcDbSavedByObjectVersion
1070
     0
  0
VISUALSTYLE
  5
3A
102
{ACAD_REACTORS
330
2A
102
}
330
2A
100
AcDbVisualStyle
  2
ColorChange
 70
    16
 71
     2
 72
     2
 73
     3
 90
        0
 40
-0.6
 41
-30.0
 62
     5
 63
     8
421
  8421504
 74
     1
 91
        4
 64
     7
 65
   257
 75
     1
175
     1
 42
1.0
 92
        8
 66
     8
424
  8421504
 43
1.0
 76
     1
 77
     6
 78
     2
 67
     7
 79
     5
170
     0
171
     0
290
     0
174
     0
 93
        1
 44
0.0
173
     0
291
     1
 45
0.0
1001
ACAD
1000
AcDbSavedByObjectVersion
1070
     0
  0
VISUALSTYLE
  5
34
102
{ACAD_REACTORS
330
2A
102
}
330
2A
100
AcDbVisualStyle
  2
Conceptual
 70
     9
 71
     3
 72
     2
 73
     0
 90
        0
 40
-0.6
 41
-30.0
 62
     5
 63
     7
421
 16777215
 74
     2
 91
        2
 64
     7
 65
   257
 75
     1
175
     1
 42
40.0
 92
        8
 66
     7
 43
1.0
 76
     1
 77
     6
 78
     2
 67
     7
 79
     3
170
     0
171
     0
290
     0
174
     0
 93
        1
 44
0.0
173
     0
291
     0
 45
0.0
1001
ACAD
1000
AcDbSavedByObjectVersion
1070
     0
  0
VISUALSTYLE
  5
35
102
{ACAD_REACTORS
330
2A
102
}
330
2A
100
AcDbVisualStyle
  2
Dim
 70
    11
 71
     2
 72
     2
 73
     0
 90
        0
 40
-0.6
 41
-30.0
 62
     5
 63
     7
421
 16777215
 74
     1
 91
        4
 64
     7
 65
   257
 75
     1
175
     1
 42
1.0
 92
        8
 66
     7
 43
1.0
 76
     1
 77
     6
 78
     2
 67
     7
 79
     5
170
     0
171
     0
290
     0
174
     0
 93
        1
 44
-50.0
173
     0
291
     1
 45
0.0
1001
ACAD
1000
AcDbSavedByObjectVersion
1070
     0
  0
VISUALSTYLE
  5
39
102
{ACAD_REACTORS
330
2A
102
}
330
2A
100
AcDbVisualStyle
  2
Facepattern
 70
    15
 71
     2
 72
     2
 73
     0
 90
        0
 40
-0.6
 41
-30.0
 62
     5
 63
     7
421
 16777215
 74
     1
 91
        4
 64
     7
 65
   257
 75
     1
175
     1
 42
1.0
 92
        8
 66
     7
 43
1.0
 76
     1
 77
     6
 78
     2
 67
     7
 79
     5
170
     0
171
     0
290
     0
174
     0
 93
        1
 44
0.0
173
     0
291
     1
 45
0.0
1001
ACAD
1000
AcDbSavedByObjectVersion
1070
     0
  0
VISUALSTYLE
  5
2B
102
{ACAD_REACTORS
330
2A
102
}
330
2A
100
AcDbVisualStyle
  2
Flat
 70
     0
 71
     2
 72
     1
 73
     1
 90
        2
 40
-0.6
 41
30.0
 62
     5
 63
     7
421
 16777215
 74
     0
 91
        4
 64
     7
 65
   257
 75
     1
175
     1
 42
1.0
 92
        8
 66
     7
 43
1.0
 76
     1
 77
     6
 78
     2
 67
     7
 79
     5
170
     0
171
     0
290
     0
174
     0
 93
       13
 44
0.0
173
     0
291
     1
 45
0.0
1001
ACAD
1000
AcDbSavedByObjectVersion
1070
     0
  0
VISUALSTYLE
  5
2C
102
{ACAD_REACTORS
330
2A
102
}
330
2A
100
AcDbVisualStyle
  2
FlatWithEdges
 70
     1
 71
     2
 72
     1
 73
     1
 90
        2
 40
-0.6
 41
30.0
 62
     5
 63
     7
421
 16777215
 74
     1
 91
        4
 64
     7
 65
   257
 75
     1
175
     1
 42
1.0
 92
        0
 66
   257
 43
1.0
 76
     1
 77
     6
 78
     2
 67
     7
 79
     5
170
     0
171
     0
290
     0
174
     0
 93
       13
 44
0.0
173
     0
291
     1
 45
0.0
1001
ACAD
1000
AcDbSavedByObjectVersion
1070
     0
  0
VISUALSTYLE
  5
2D
102
{ACAD_REACTORS
330
2A
102
}
330
2A
100
AcDbVisualStyle
  2
Gouraud
 70
     2
 71
     2
 72
     2
 73
     1
 90
        2
 40
-0.6
 41
30.0
 62
     5
 63
     7
421
 16777215
 74
     0
 91
        4
 64
     7
 65
   257
 75
     1
175
     1
 42
1.0
 92
        0
 66
     7
 43
1.0
 76
     1
 77
     6
 78
     2
 67
     7
 79
     5
170
     0
171
     0
290
     0
174
     0
 93
       13
 44
0.0
173
     0
291
     1
 45
0.0
1001
ACAD
1000
AcDbSavedByObjectVersion
1070
     0
  0
VISUALSTYLE
  5
2E
102
{ACAD_REACTORS
330
2A
102
}
330
2A
100
AcDbVisualStyle
  2
GouraudWithEdges
 70
     3
 71
     2
 72
     2
 73
     1
 90
        2
 40
-0.6
 41
30.0
 62
     5
 63
     7
421
 16777215
 74
     1
 91
        4
 64
     7
 65
   257
 75
     1
175
     1
 42
1.0
 92
        0
 66
   257
 43
1.0
 76
     1
 77
     6
 78
     2
 67
     7
 79
     5
170
     0
171
     0
290
     0
174
     0
 93
       13
 44
0.0
173
     0
291
     1
 45
0.0
1001
ACAD
1000
AcDbSavedByObjectVersion
1070
     0
  0
VISUALSTYLE
  5
38
102
{ACAD_REACTORS
330
2A
102
}
330
2A
100
AcDbVisualStyle
  2
Linepattern
 70
    14
 71
     2
 72
     2
 73
     0
 90
        0
 40
-0.6
 41
-30.0
 62
     5
 63
     7
421
 16777215
 74
     1
 91
        4
 64
     7
 65
   257
 75
     7
175
     7
 42
1.0
 92
        8
 66
     7
 43
1.0
 76
     1
 77
     6
 78
     2
 67
     7
 79
     5
170
     0
171
     0
290
     0
174
     0
 93
        1
 44
0.0
173
     0
291
     1
 45
0.0
1001
ACAD
1000
AcDbSavedByObjectVersion
1070
     0
  0
VISUALSTYLE
  5
33
102
{ACAD_REACTORS
330
2A
102
}
330
2A
100
AcDbVisualStyle
  2
Realistic
 70
     8
 71
     2
 72
     2
 73
     0
 90
        0
 40
-0.6
 41
-30.0
 62
     5
 63
     7
421
 16777215
 74
     1
 91
        0
 64
     7
 65
   257
 75
     1
175
     1
 42
1.0
 92
        8
 66
     8
424
  7895160
 43
1.0
 76
     1
 77
     6
 78
     2
 67
     7
 79
     5
170
     0
171
     0
290
     0
174
     0
 93
       13
 44
0.0
173
     0
291
     0
 45
0.0
1001
ACAD
1000
AcDbSavedByObjectVersion
1070
     0
  0
VISUALSTYLE
  5
37
102
{ACAD_REACTORS
330
2A
102
}
330
2A
100
AcDbVisualStyle
  2
Thicken
 70
    13
 71
     2
 72
     2
 73
     0
 90
        0
 40
-0.6
 41
-30.0
 62
     5
 63
     7
421
 16777215
 74
     1
 91
        4
 64
     7
 65
   257
 75
     1
175
     1
 42
1.0
 92
       12
 66
     7
 43
1.0
 76
     1
 77
     6
 78
     2
 67
     7
 79
     5
170
     0
171
     0
290
     0
174
     0
 93
        1
 44
0.0
173
     0
291
     1
 45
0.0
1001
ACAD
1000
AcDbSavedByObjectVersion
1070
     0
  0
ENDSEC
  0
EOF
